%TF.GenerationSoftware,KiCad,Pcbnew,(6.0.7)*%
%TF.CreationDate,2023-01-06T20:11:24-06:00*%
%TF.ProjectId,OpenRectangle,4f70656e-5265-4637-9461-6e676c652e6b,rev?*%
%TF.SameCoordinates,Original*%
%TF.FileFunction,Drillmap*%
%TF.FilePolarity,Positive*%
%FSLAX45Y45*%
G04 Gerber Fmt 4.5, Leading zero omitted, Abs format (unit mm)*
G04 Created by KiCad (PCBNEW (6.0.7)) date 2023-01-06 20:11:24*
%MOMM*%
%LPD*%
G01*
G04 APERTURE LIST*
%ADD10C,0.100000*%
%ADD11C,0.200000*%
%ADD12C,0.050000*%
%ADD13C,0.065000*%
%ADD14C,0.075000*%
%ADD15C,0.150000*%
%ADD16C,0.175000*%
%ADD17C,0.210000*%
%ADD18C,0.220000*%
%ADD19C,0.398780*%
G04 APERTURE END LIST*
D10*
X30696301Y-8283000D02*
G75*
G03*
X30753311Y-8340009I57009J0D01*
G01*
X32316689Y-8339697D02*
X30753311Y-8340009D01*
X31500000Y-4597520D02*
X32225000Y-4597579D01*
X30696000Y-5368273D02*
X30696010Y-2737825D01*
X20206884Y-12489126D02*
G75*
G03*
X20357883Y-12640126I150996J-4D01*
G01*
X26622883Y-7183128D02*
G75*
G03*
X26475883Y-7334126I4057J-151002D01*
G01*
X25122687Y-10118997D02*
G75*
G03*
X24971687Y-10269991I3J-151003D01*
G01*
X25673227Y-5004000D02*
X25673000Y-4865000D01*
X35005000Y-9960579D02*
X34131000Y-9960579D01*
X31787000Y-12466579D02*
X31787000Y-10863579D01*
X25422883Y-2562126D02*
X21058883Y-2562126D01*
X20810648Y-2719620D02*
G75*
G03*
X20587991Y-2496682I-222678J260D01*
G01*
X26397462Y-10119012D02*
G75*
G03*
X26548462Y-9968009I-12J151012D01*
G01*
X34884001Y-5370579D02*
G75*
G03*
X34734000Y-5220579I-149991J9D01*
G01*
X26773883Y-5429126D02*
X26773883Y-7032126D01*
X25573000Y-4865000D02*
X25573000Y-5128000D01*
X24721883Y-12640126D02*
X20357883Y-12640126D01*
X27883714Y-9754925D02*
G75*
G03*
X27732714Y-9905929I-5J-150996D01*
G01*
X20756884Y-10735354D02*
G75*
G03*
X20907884Y-10584353I7J150994D01*
G01*
X25573884Y-2713126D02*
G75*
G03*
X25422883Y-2562126I-151004J-4D01*
G01*
X32122688Y-7423866D02*
G75*
G03*
X32273454Y-7274000I122J150646D01*
G01*
X32273000Y-6112000D02*
X32273454Y-5669819D01*
X26475883Y-8114126D02*
X26475883Y-9867126D01*
X26699460Y-7849510D02*
G75*
G03*
X26548460Y-8000508I-10J-150990D01*
G01*
X20587991Y-2496682D02*
X15724009Y-2496682D01*
X20907884Y-10584353D02*
X20909000Y-8153000D01*
X24971687Y-10269991D02*
X24973000Y-10958000D01*
X31787001Y-12466579D02*
G75*
G03*
X31938000Y-12617579I151009J9D01*
G01*
X27250000Y-7273273D02*
X27250093Y-5306012D01*
X34883999Y-7902579D02*
G75*
G03*
X35021000Y-8054579I150612J-1991D01*
G01*
X15500991Y-12660991D02*
X15501000Y-2719691D01*
X24872883Y-10169426D02*
X24873000Y-10958000D01*
X31500000Y-2691580D02*
G75*
G03*
X31349000Y-2842579I0J-151000D01*
G01*
X25122699Y-12023747D02*
X27579460Y-12023747D01*
X19668309Y-12883997D02*
G75*
G03*
X19891347Y-12660991I1J223037D01*
G01*
X35156000Y-8205579D02*
X35156000Y-9809579D01*
X27732687Y-11872962D02*
X27732714Y-9905929D01*
X27579460Y-12023747D02*
G75*
G03*
X27732687Y-11872962I2430J150777D01*
G01*
X20594000Y-8384991D02*
G75*
G03*
X20809000Y-8153000I-5890J221081D01*
G01*
X28453912Y-8000508D02*
G75*
G03*
X28302913Y-7849508I-151002J-2D01*
G01*
X32223016Y-10712806D02*
X31938000Y-10712579D01*
X24971703Y-11872747D02*
G75*
G03*
X25122699Y-12023747I150997J-3D01*
G01*
X26397462Y-10119009D02*
X25929000Y-10119009D01*
X30696302Y-8283000D02*
X30696461Y-7574850D01*
X35005000Y-9960580D02*
G75*
G03*
X35156000Y-9809579I0J151000D01*
G01*
X32374001Y-4746579D02*
G75*
G03*
X32225000Y-4597579I-150541J-1541D01*
G01*
X20114000Y-8385000D02*
X20594000Y-8385000D01*
X28302913Y-9754962D02*
X27883714Y-9754929D01*
X32122454Y-5518819D02*
X30846977Y-5518819D01*
X33253001Y-5069579D02*
G75*
G03*
X33404000Y-5220579I151009J9D01*
G01*
X28791000Y-9539273D02*
X28791083Y-7574990D01*
X30545454Y-9690274D02*
G75*
G03*
X30696454Y-9539273I6J150994D01*
G01*
X26622883Y-7183123D02*
G75*
G03*
X26773883Y-7032126I-3J151003D01*
G01*
X20909000Y-7603000D02*
X20909000Y-3638000D01*
X25122687Y-10118991D02*
X25379000Y-10118991D01*
X20358133Y-10735133D02*
G75*
G03*
X20207133Y-10886126I-3J-150997D01*
G01*
X33253000Y-2842579D02*
X33253000Y-5069579D01*
X26324805Y-10018394D02*
X25929000Y-10019000D01*
X25673000Y-2738000D02*
X25673000Y-2813000D01*
X31349000Y-2842579D02*
X31349000Y-4446520D01*
X15500990Y-12660991D02*
G75*
G03*
X15724000Y-12884000I223010J1D01*
G01*
X32374016Y-10561806D02*
X32373697Y-8822311D01*
X32316689Y-8765303D02*
X30753000Y-8764991D01*
X33980000Y-12466579D02*
X33980000Y-10111579D01*
X20907883Y-2713126D02*
X20909000Y-3088000D01*
X27099454Y-5154819D02*
X25824016Y-5154848D01*
X28453913Y-8000508D02*
X28453913Y-9603962D01*
X34884000Y-5370579D02*
X34884000Y-7902579D01*
X25673000Y-4315000D02*
X25673000Y-3363000D01*
X30696000Y-5368273D02*
G75*
G03*
X30846977Y-5518819I150490J-57D01*
G01*
X30696016Y-2737825D02*
G75*
G03*
X30545454Y-2586773I-150566J485D01*
G01*
X33829000Y-12617580D02*
G75*
G03*
X33980000Y-12466579I0J151000D01*
G01*
X25023000Y-10019004D02*
G75*
G03*
X24872883Y-10169426I310J-150426D01*
G01*
X28791007Y-9539273D02*
G75*
G03*
X28942000Y-9690273I150993J-7D01*
G01*
X33253001Y-2842579D02*
G75*
G03*
X33102000Y-2691579I-150991J9D01*
G01*
X25379000Y-10019000D02*
X25023000Y-10019000D01*
X20207133Y-10886126D02*
X20207686Y-11320173D01*
X28302913Y-9754964D02*
G75*
G03*
X28453913Y-9603962I-4J151004D01*
G01*
X28302913Y-7849508D02*
X26699460Y-7849508D01*
X32373697Y-8282689D02*
X32373000Y-6662000D01*
X27250100Y-5306012D02*
G75*
G03*
X27099454Y-5154819I-150660J532D01*
G01*
X24872883Y-12489126D02*
X24873000Y-11508000D01*
X27249998Y-7273273D02*
G75*
G03*
X27400974Y-7423822I150602J53D01*
G01*
X25823894Y-2586760D02*
G75*
G03*
X25673000Y-2738000I326J-151220D01*
G01*
X32373697Y-8822311D02*
G75*
G03*
X32316689Y-8765303I-57008J1D01*
G01*
X21058883Y-2562133D02*
G75*
G03*
X20907883Y-2713126I-3J-150997D01*
G01*
X25673232Y-5004000D02*
G75*
G03*
X25824016Y-5154848I150508J-340D01*
G01*
X20206883Y-12489126D02*
X20206883Y-11919000D01*
X19891318Y-8610000D02*
X19892033Y-11320173D01*
X32273454Y-7274000D02*
X32273000Y-6662000D01*
X15724000Y-12884000D02*
X19668309Y-12884000D01*
X24971699Y-11872747D02*
X24973000Y-11508000D01*
X28640454Y-7423819D02*
X27400974Y-7423822D01*
X35155999Y-8205579D02*
G75*
G03*
X35021000Y-8054579I-151939J9D01*
G01*
X20206883Y-11919000D02*
G75*
G03*
X19891347Y-11919000I-157768J0D01*
G01*
X19892033Y-11320173D02*
G75*
G03*
X20207686Y-11320173I157827J0D01*
G01*
X19891347Y-11919000D02*
X19891347Y-12660991D01*
X20358133Y-10735126D02*
X20756884Y-10735353D01*
X33829000Y-12617579D02*
X31938000Y-12617579D01*
X32374000Y-4746579D02*
X32373000Y-6112000D01*
X25724883Y-5278126D02*
X26622883Y-5278126D01*
X26548460Y-8000508D02*
X26548462Y-9968009D01*
X25573000Y-3363000D02*
X25573000Y-4315000D01*
X30848000Y-7423819D02*
X32122688Y-7423858D01*
X33404000Y-5220579D02*
X34734000Y-5220579D01*
X31349000Y-4446520D02*
G75*
G03*
X31500000Y-4597520I151000J0D01*
G01*
X15724009Y-2496680D02*
G75*
G03*
X15501000Y-2719691I1J-223010D01*
G01*
X30696454Y-9539273D02*
X30696454Y-8822000D01*
X25573004Y-5128000D02*
G75*
G03*
X25724883Y-5278126I151876J1760D01*
G01*
X30545454Y-2586773D02*
X25823894Y-2586765D01*
X32316689Y-8339697D02*
G75*
G03*
X32373697Y-8282689I1J57008D01*
G01*
X33102000Y-2691579D02*
X31500000Y-2691579D01*
X28791090Y-7574990D02*
G75*
G03*
X28640454Y-7423819I-150660J510D01*
G01*
X20810646Y-2719620D02*
X20809000Y-3088000D01*
X20809000Y-3638000D02*
X20809000Y-7603000D01*
X32273461Y-5669819D02*
G75*
G03*
X32122454Y-5518819I-151001J-1D01*
G01*
X20114000Y-8384996D02*
G75*
G03*
X19891318Y-8610000I0J-222694D01*
G01*
X30848000Y-7423820D02*
G75*
G03*
X30696461Y-7574850I30J-151570D01*
G01*
X31938000Y-10712580D02*
G75*
G03*
X31787000Y-10863579I0J-151000D01*
G01*
X24721883Y-12640133D02*
G75*
G03*
X24872883Y-12489126I-3J151003D01*
G01*
X30545454Y-9690273D02*
X28942000Y-9690273D01*
X34131000Y-9960580D02*
G75*
G03*
X33980000Y-10111579I0J-151000D01*
G01*
X32223016Y-10712807D02*
G75*
G03*
X32374016Y-10561806I4J150997D01*
G01*
X26324805Y-10018393D02*
G75*
G03*
X26475883Y-9867126I-185J151263D01*
G01*
X26475883Y-8114126D02*
X26475883Y-7334126D01*
X30753000Y-8764992D02*
G75*
G03*
X30696454Y-8822000I0J-56548D01*
G01*
X26773884Y-5429126D02*
G75*
G03*
X26622883Y-5278126I-151004J-4D01*
G01*
X25573883Y-2713126D02*
X25573000Y-2813000D01*
D11*
D12*
X19830000Y-11397000D02*
X19880000Y-11447000D01*
X19880000Y-11397000D02*
X19830000Y-11447000D01*
X19830000Y-11471000D02*
X19880000Y-11521000D01*
X19880000Y-11471000D02*
X19830000Y-11521000D01*
X19830000Y-11545000D02*
X19880000Y-11595000D01*
X19880000Y-11545000D02*
X19830000Y-11595000D01*
X19830000Y-11619000D02*
X19880000Y-11669000D01*
X19880000Y-11619000D02*
X19830000Y-11669000D01*
X19830000Y-11693000D02*
X19880000Y-11743000D01*
X19880000Y-11693000D02*
X19830000Y-11743000D01*
X19830000Y-11767000D02*
X19880000Y-11817000D01*
X19880000Y-11767000D02*
X19830000Y-11817000D01*
X20231000Y-11397000D02*
X20281000Y-11447000D01*
X20281000Y-11397000D02*
X20231000Y-11447000D01*
X20231000Y-11471000D02*
X20281000Y-11521000D01*
X20281000Y-11471000D02*
X20231000Y-11521000D01*
X20231000Y-11545000D02*
X20281000Y-11595000D01*
X20281000Y-11545000D02*
X20231000Y-11595000D01*
X20231000Y-11619000D02*
X20281000Y-11669000D01*
X20281000Y-11619000D02*
X20231000Y-11669000D01*
X20231000Y-11693000D02*
X20281000Y-11743000D01*
X20281000Y-11693000D02*
X20231000Y-11743000D01*
X20231000Y-11767000D02*
X20281000Y-11817000D01*
X20281000Y-11767000D02*
X20231000Y-11817000D01*
X30628000Y-8338000D02*
X30678000Y-8388000D01*
X30678000Y-8338000D02*
X30628000Y-8388000D01*
X30628000Y-8412000D02*
X30678000Y-8462000D01*
X30678000Y-8412000D02*
X30628000Y-8462000D01*
X30628000Y-8486000D02*
X30678000Y-8536000D01*
X30678000Y-8486000D02*
X30628000Y-8536000D01*
X30628000Y-8560000D02*
X30678000Y-8610000D01*
X30678000Y-8560000D02*
X30628000Y-8610000D01*
X30628000Y-8634000D02*
X30678000Y-8684000D01*
X30678000Y-8634000D02*
X30628000Y-8684000D01*
X30628000Y-8708000D02*
X30678000Y-8758000D01*
X30678000Y-8708000D02*
X30628000Y-8758000D01*
X32384000Y-8338000D02*
X32434000Y-8388000D01*
X32434000Y-8338000D02*
X32384000Y-8388000D01*
X32384000Y-8412000D02*
X32434000Y-8462000D01*
X32434000Y-8412000D02*
X32384000Y-8462000D01*
X32384000Y-8486000D02*
X32434000Y-8536000D01*
X32434000Y-8486000D02*
X32384000Y-8536000D01*
X32384000Y-8560000D02*
X32434000Y-8610000D01*
X32434000Y-8560000D02*
X32384000Y-8610000D01*
X32384000Y-8634000D02*
X32434000Y-8684000D01*
X32434000Y-8634000D02*
X32384000Y-8684000D01*
X32384000Y-8708000D02*
X32434000Y-8758000D01*
X32434000Y-8708000D02*
X32384000Y-8758000D01*
D13*
X19530350Y-3372875D02*
G75*
G03*
X19530350Y-3372875I-32500J0D01*
G01*
D11*
X19512850Y-3340375D02*
X19482850Y-3340375D01*
X19512850Y-3405375D02*
X19482850Y-3405375D01*
X19482850Y-3340375D02*
G75*
G03*
X19482850Y-3405375I0J-32500D01*
G01*
X19512850Y-3405375D02*
G75*
G03*
X19512850Y-3340375I0J32500D01*
G01*
D13*
X20250350Y-3372875D02*
G75*
G03*
X20250350Y-3372875I-32500J0D01*
G01*
D14*
X20934000Y-3135000D02*
X20934000Y-3210000D01*
X20896500Y-3172500D02*
X20971500Y-3172500D01*
X20934000Y-3262000D02*
X20934000Y-3337000D01*
X20896500Y-3299500D02*
X20971500Y-3299500D01*
X20934000Y-3389000D02*
X20934000Y-3464000D01*
X20896500Y-3426500D02*
X20971500Y-3426500D01*
X20934000Y-3516000D02*
X20934000Y-3591000D01*
X20896500Y-3553500D02*
X20971500Y-3553500D01*
X20934000Y-7650000D02*
X20934000Y-7725000D01*
X20896500Y-7687500D02*
X20971500Y-7687500D01*
X20934000Y-7777000D02*
X20934000Y-7852000D01*
X20896500Y-7814500D02*
X20971500Y-7814500D01*
X20934000Y-7904000D02*
X20934000Y-7979000D01*
X20896500Y-7941500D02*
X20971500Y-7941500D01*
X20934000Y-8031000D02*
X20934000Y-8106000D01*
X20896500Y-8068500D02*
X20971500Y-8068500D01*
X24998000Y-11005000D02*
X24998000Y-11080000D01*
X24960500Y-11042500D02*
X25035500Y-11042500D01*
X24998000Y-11132000D02*
X24998000Y-11207000D01*
X24960500Y-11169500D02*
X25035500Y-11169500D01*
X24998000Y-11259000D02*
X24998000Y-11334000D01*
X24960500Y-11296500D02*
X25035500Y-11296500D01*
X24998000Y-11386000D02*
X24998000Y-11461000D01*
X24960500Y-11423500D02*
X25035500Y-11423500D01*
X25463500Y-10106500D02*
X25463500Y-10181500D01*
X25426000Y-10144000D02*
X25501000Y-10144000D01*
X25548000Y-2860000D02*
X25548000Y-2935000D01*
X25510500Y-2897500D02*
X25585500Y-2897500D01*
X25548000Y-2987000D02*
X25548000Y-3062000D01*
X25510500Y-3024500D02*
X25585500Y-3024500D01*
X25548000Y-3114000D02*
X25548000Y-3189000D01*
X25510500Y-3151500D02*
X25585500Y-3151500D01*
X25548000Y-3241000D02*
X25548000Y-3316000D01*
X25510500Y-3278500D02*
X25585500Y-3278500D01*
X25548000Y-4362000D02*
X25548000Y-4437000D01*
X25510500Y-4399500D02*
X25585500Y-4399500D01*
X25548000Y-4489000D02*
X25548000Y-4564000D01*
X25510500Y-4526500D02*
X25585500Y-4526500D01*
X25548000Y-4616000D02*
X25548000Y-4691000D01*
X25510500Y-4653500D02*
X25585500Y-4653500D01*
X25548000Y-4743000D02*
X25548000Y-4818000D01*
X25510500Y-4780500D02*
X25585500Y-4780500D01*
X25590500Y-10106500D02*
X25590500Y-10181500D01*
X25553000Y-10144000D02*
X25628000Y-10144000D01*
X25717500Y-10106500D02*
X25717500Y-10181500D01*
X25680000Y-10144000D02*
X25755000Y-10144000D01*
X25844500Y-10106500D02*
X25844500Y-10181500D01*
X25807000Y-10144000D02*
X25882000Y-10144000D01*
X32398000Y-6159000D02*
X32398000Y-6234000D01*
X32360500Y-6196500D02*
X32435500Y-6196500D01*
X32398000Y-6286000D02*
X32398000Y-6361000D01*
X32360500Y-6323500D02*
X32435500Y-6323500D01*
X32398000Y-6413000D02*
X32398000Y-6488000D01*
X32360500Y-6450500D02*
X32435500Y-6450500D01*
X32398000Y-6540000D02*
X32398000Y-6615000D01*
X32360500Y-6577500D02*
X32435500Y-6577500D01*
D15*
X17481159Y-6622408D02*
X17481159Y-6516341D01*
X17375092Y-6516341D01*
X17375092Y-6622408D01*
X17481159Y-6622408D01*
X17511159Y-6925408D02*
X17511159Y-6819341D01*
X17405092Y-6819341D01*
X17405092Y-6925408D01*
X17511159Y-6925408D01*
X17996159Y-6925408D02*
X17996159Y-6819341D01*
X17890092Y-6819341D01*
X17890092Y-6925408D01*
X17996159Y-6925408D01*
X18026159Y-6622408D02*
X18026159Y-6516341D01*
X17920092Y-6516341D01*
X17920092Y-6622408D01*
X18026159Y-6622408D01*
D16*
X19349850Y-7520187D02*
X19437350Y-7432687D01*
X19349850Y-7345187D01*
X19262350Y-7432687D01*
X19349850Y-7520187D01*
X20365850Y-7520187D02*
X20453350Y-7432687D01*
X20365850Y-7345187D01*
X20278350Y-7432687D01*
X20365850Y-7520187D01*
X21158997Y-11267276D02*
X21246497Y-11179776D01*
X21158997Y-11092276D01*
X21071497Y-11179776D01*
X21158997Y-11267276D01*
X21158997Y-12283276D02*
X21246497Y-12195776D01*
X21158997Y-12108276D01*
X21071497Y-12195776D01*
X21158997Y-12283276D01*
X21860597Y-3157676D02*
X21948097Y-3070176D01*
X21860597Y-2982676D01*
X21773097Y-3070176D01*
X21860597Y-3157676D01*
X21860597Y-4173676D02*
X21948097Y-4086176D01*
X21860597Y-3998676D01*
X21773097Y-4086176D01*
X21860597Y-4173676D01*
X22762597Y-8644976D02*
X22850097Y-8557476D01*
X22762597Y-8469976D01*
X22675097Y-8557476D01*
X22762597Y-8644976D01*
X22762597Y-9660976D02*
X22850097Y-9573476D01*
X22762597Y-9485976D01*
X22675097Y-9573476D01*
X22762597Y-9660976D01*
X23060097Y-5809476D02*
X23147597Y-5721976D01*
X23060097Y-5634476D01*
X22972597Y-5721976D01*
X23060097Y-5809476D01*
X23060097Y-6825476D02*
X23147597Y-6737976D01*
X23060097Y-6650476D01*
X22972597Y-6737976D01*
X23060097Y-6825476D01*
X23919997Y-11267276D02*
X24007497Y-11179776D01*
X23919997Y-11092276D01*
X23832497Y-11179776D01*
X23919997Y-11267276D01*
X23919997Y-12283276D02*
X24007497Y-12195776D01*
X23919997Y-12108276D01*
X23832497Y-12195776D01*
X23919997Y-12283276D01*
X24621497Y-3157676D02*
X24708997Y-3070176D01*
X24621497Y-2982676D01*
X24533997Y-3070176D01*
X24621497Y-3157676D01*
X24621497Y-4173676D02*
X24708997Y-4086176D01*
X24621497Y-3998676D01*
X24533997Y-4086176D01*
X24621497Y-4173676D01*
X25523597Y-8644976D02*
X25611097Y-8557476D01*
X25523597Y-8469976D01*
X25436097Y-8557476D01*
X25523597Y-8644976D01*
X25523597Y-9660976D02*
X25611097Y-9573476D01*
X25523597Y-9485976D01*
X25436097Y-9573476D01*
X25523597Y-9660976D01*
X25821097Y-5809476D02*
X25908597Y-5721976D01*
X25821097Y-5634476D01*
X25733597Y-5721976D01*
X25821097Y-5809476D01*
X25821097Y-6825476D02*
X25908597Y-6737976D01*
X25821097Y-6650476D01*
X25733597Y-6737976D01*
X25821097Y-6825476D01*
X25924000Y-10650585D02*
X26011500Y-10563085D01*
X25924000Y-10475585D01*
X25836500Y-10563085D01*
X25924000Y-10650585D01*
X25924000Y-11666585D02*
X26011500Y-11579085D01*
X25924000Y-11491585D01*
X25836500Y-11579085D01*
X25924000Y-11666585D01*
X26625440Y-3782396D02*
X26712940Y-3694896D01*
X26625440Y-3607396D01*
X26537940Y-3694896D01*
X26625440Y-3782396D01*
X26625440Y-4798396D02*
X26712940Y-4710896D01*
X26625440Y-4623396D01*
X26537940Y-4710896D01*
X26625440Y-4798396D01*
X27500900Y-8381785D02*
X27588400Y-8294285D01*
X27500900Y-8206785D01*
X27413400Y-8294285D01*
X27500900Y-8381785D01*
X27500900Y-9397785D02*
X27588400Y-9310285D01*
X27500900Y-9222785D01*
X27413400Y-9310285D01*
X27500900Y-9397785D01*
X28202440Y-6051096D02*
X28289940Y-5963596D01*
X28202440Y-5876096D01*
X28114940Y-5963596D01*
X28202440Y-6051096D01*
X28202440Y-7067096D02*
X28289940Y-6979596D01*
X28202440Y-6892096D01*
X28114940Y-6979596D01*
X28202440Y-7067096D01*
X29743940Y-3782396D02*
X29831440Y-3694896D01*
X29743940Y-3607396D01*
X29656440Y-3694896D01*
X29743940Y-3782396D01*
X29743940Y-4798396D02*
X29831440Y-4710896D01*
X29743940Y-4623396D01*
X29656440Y-4710896D01*
X29743940Y-4798396D01*
X29743940Y-8316796D02*
X29831440Y-8229296D01*
X29743940Y-8141796D01*
X29656440Y-8229296D01*
X29743940Y-8316796D01*
X29743940Y-9332796D02*
X29831440Y-9245296D01*
X29743940Y-9157796D01*
X29656440Y-9245296D01*
X29743940Y-9332796D01*
X31320940Y-6051096D02*
X31408440Y-5963596D01*
X31320940Y-5876096D01*
X31233440Y-5963596D01*
X31320940Y-6051096D01*
X31320940Y-7067096D02*
X31408440Y-6979596D01*
X31320940Y-6892096D01*
X31233440Y-6979596D01*
X31320940Y-7067096D01*
X32300713Y-3223929D02*
X32388213Y-3136429D01*
X32300713Y-3048929D01*
X32213213Y-3136429D01*
X32300713Y-3223929D01*
X32300713Y-4239929D02*
X32388213Y-4152429D01*
X32300713Y-4064929D01*
X32213213Y-4152429D01*
X32300713Y-4239929D01*
X33027313Y-11244729D02*
X33114813Y-11157229D01*
X33027313Y-11069729D01*
X32939813Y-11157229D01*
X33027313Y-11244729D01*
X33027313Y-12260729D02*
X33114813Y-12173229D01*
X33027313Y-12085729D01*
X32939813Y-12173229D01*
X33027313Y-12260729D01*
X33931013Y-5751929D02*
X34018513Y-5664429D01*
X33931013Y-5576929D01*
X33843513Y-5664429D01*
X33931013Y-5751929D01*
X33931013Y-6767929D02*
X34018513Y-6680429D01*
X33931013Y-6592929D01*
X33843513Y-6680429D01*
X33931013Y-6767929D01*
X34203613Y-8587529D02*
X34291113Y-8500029D01*
X34203613Y-8412529D01*
X34116113Y-8500029D01*
X34203613Y-8587529D01*
X34203613Y-9603529D02*
X34291113Y-9516029D01*
X34203613Y-9428529D01*
X34116113Y-9516029D01*
X34203613Y-9603529D01*
D17*
X17025625Y-6514375D02*
X17235625Y-6724375D01*
X17235625Y-6514375D02*
X17025625Y-6724375D01*
X17235625Y-6619375D02*
G75*
G03*
X17235625Y-6619375I-105000J0D01*
G01*
X17025625Y-11214375D02*
X17235625Y-11424375D01*
X17235625Y-11214375D02*
X17025625Y-11424375D01*
X17235625Y-11319375D02*
G75*
G03*
X17235625Y-11319375I-105000J0D01*
G01*
X18165625Y-6514375D02*
X18375625Y-6724375D01*
X18375625Y-6514375D02*
X18165625Y-6724375D01*
X18375625Y-6619375D02*
G75*
G03*
X18375625Y-6619375I-105000J0D01*
G01*
X18165625Y-11214375D02*
X18375625Y-11424375D01*
X18375625Y-11214375D02*
X18165625Y-11424375D01*
X18375625Y-11319375D02*
G75*
G03*
X18375625Y-11319375I-105000J0D01*
G01*
D18*
X15814000Y-9835000D02*
X16034000Y-10055000D01*
X16034000Y-9835000D02*
X15814000Y-10055000D01*
X15924000Y-9835000D02*
X15924000Y-10055000D01*
X15814000Y-9945000D02*
X16034000Y-9945000D01*
X15814000Y-12350990D02*
X16034000Y-12570990D01*
X16034000Y-12350990D02*
X15814000Y-12570990D01*
X15924000Y-12350990D02*
X15924000Y-12570990D01*
X15814000Y-12460990D02*
X16034000Y-12460990D01*
X15814010Y-2809690D02*
X16034010Y-3029690D01*
X16034010Y-2809690D02*
X15814010Y-3029690D01*
X15924010Y-2809690D02*
X15924010Y-3029690D01*
X15814010Y-2919690D02*
X16034010Y-2919690D01*
X19358310Y-12350990D02*
X19578310Y-12570990D01*
X19578310Y-12350990D02*
X19358310Y-12570990D01*
X19468310Y-12350990D02*
X19468310Y-12570990D01*
X19358310Y-12460990D02*
X19578310Y-12460990D01*
X20277970Y-5823000D02*
X20497970Y-6043000D01*
X20497970Y-5823000D02*
X20277970Y-6043000D01*
X20387970Y-5823000D02*
X20387970Y-6043000D01*
X20277970Y-5933000D02*
X20497970Y-5933000D01*
X21314883Y-10247126D02*
X21534883Y-10467126D01*
X21534883Y-10247126D02*
X21314883Y-10467126D01*
X21424883Y-10247126D02*
X21424883Y-10467126D01*
X21314883Y-10357126D02*
X21534883Y-10357126D01*
X23156883Y-3434126D02*
X23376883Y-3654126D01*
X23376883Y-3434126D02*
X23156883Y-3654126D01*
X23266883Y-3434126D02*
X23266883Y-3654126D01*
X23156883Y-3544126D02*
X23376883Y-3544126D01*
X24337883Y-10236126D02*
X24557883Y-10456126D01*
X24557883Y-10236126D02*
X24337883Y-10456126D01*
X24447883Y-10236126D02*
X24447883Y-10456126D01*
X24337883Y-10346126D02*
X24557883Y-10346126D01*
X25740883Y-7575126D02*
X25960883Y-7795126D01*
X25960883Y-7575126D02*
X25740883Y-7795126D01*
X25850883Y-7575126D02*
X25850883Y-7795126D01*
X25740883Y-7685126D02*
X25960883Y-7685126D01*
X27170687Y-9887735D02*
X27390687Y-10107735D01*
X27390687Y-9887735D02*
X27170687Y-10107735D01*
X27280687Y-9887735D02*
X27280687Y-10107735D01*
X27170687Y-9997735D02*
X27390687Y-9997735D01*
X27170687Y-11529735D02*
X27390687Y-11749735D01*
X27390687Y-11529735D02*
X27170687Y-11749735D01*
X27280687Y-11529735D02*
X27280687Y-11749735D01*
X27170687Y-11639735D02*
X27390687Y-11639735D01*
X27845227Y-5151046D02*
X28065227Y-5371046D01*
X28065227Y-5151046D02*
X27845227Y-5371046D01*
X27955227Y-5151046D02*
X27955227Y-5371046D01*
X27845227Y-5261046D02*
X28065227Y-5261046D01*
X29963227Y-6828046D02*
X30183227Y-7048046D01*
X30183227Y-6828046D02*
X29963227Y-7048046D01*
X30073227Y-6828046D02*
X30073227Y-7048046D01*
X29963227Y-6938046D02*
X30183227Y-6938046D01*
X32535000Y-5060579D02*
X32755000Y-5280579D01*
X32755000Y-5060579D02*
X32535000Y-5280579D01*
X32645000Y-5060579D02*
X32645000Y-5280579D01*
X32535000Y-5170579D02*
X32755000Y-5170579D01*
X32562000Y-10564579D02*
X32782000Y-10784579D01*
X32782000Y-10564579D02*
X32562000Y-10784579D01*
X32672000Y-10564579D02*
X32672000Y-10784579D01*
X32562000Y-10674579D02*
X32782000Y-10674579D01*
X33882000Y-7449579D02*
X34102000Y-7669579D01*
X34102000Y-7449579D02*
X33882000Y-7669579D01*
X33992000Y-7449579D02*
X33992000Y-7669579D01*
X33882000Y-7559579D02*
X34102000Y-7559579D01*
D19*
X19658460Y-7233297D02*
X20057240Y-7632077D01*
X20057240Y-7233297D02*
X19658460Y-7632077D01*
X19998841Y-7573678D02*
X19998841Y-7291695D01*
X19716859Y-7291695D01*
X19716859Y-7573678D01*
X19998841Y-7573678D01*
X20959607Y-11488386D02*
X21358387Y-11887166D01*
X21358387Y-11488386D02*
X20959607Y-11887166D01*
X21299988Y-11828767D02*
X21299988Y-11546785D01*
X21018005Y-11546785D01*
X21018005Y-11828767D01*
X21299988Y-11828767D01*
X21661207Y-3378786D02*
X22059987Y-3777566D01*
X22059987Y-3378786D02*
X21661207Y-3777566D01*
X22001588Y-3719167D02*
X22001588Y-3437185D01*
X21719605Y-3437185D01*
X21719605Y-3719167D01*
X22001588Y-3719167D01*
X22563207Y-8866086D02*
X22961987Y-9264866D01*
X22961987Y-8866086D02*
X22563207Y-9264866D01*
X22903588Y-9206467D02*
X22903588Y-8924485D01*
X22621605Y-8924485D01*
X22621605Y-9206467D01*
X22903588Y-9206467D01*
X22860707Y-6030586D02*
X23259487Y-6429366D01*
X23259487Y-6030586D02*
X22860707Y-6429366D01*
X23201088Y-6370967D02*
X23201088Y-6088985D01*
X22919105Y-6088985D01*
X22919105Y-6370967D01*
X23201088Y-6370967D01*
X23720607Y-11488386D02*
X24119387Y-11887166D01*
X24119387Y-11488386D02*
X23720607Y-11887166D01*
X24060988Y-11828767D02*
X24060988Y-11546785D01*
X23779005Y-11546785D01*
X23779005Y-11828767D01*
X24060988Y-11828767D01*
X24422107Y-3378786D02*
X24820887Y-3777566D01*
X24820887Y-3378786D02*
X24422107Y-3777566D01*
X24762488Y-3719167D02*
X24762488Y-3437185D01*
X24480505Y-3437185D01*
X24480505Y-3719167D01*
X24762488Y-3719167D01*
X25324207Y-8866086D02*
X25722987Y-9264866D01*
X25722987Y-8866086D02*
X25324207Y-9264866D01*
X25664588Y-9206467D02*
X25664588Y-8924485D01*
X25382605Y-8924485D01*
X25382605Y-9206467D01*
X25664588Y-9206467D01*
X25621707Y-6030586D02*
X26020487Y-6429366D01*
X26020487Y-6030586D02*
X25621707Y-6429366D01*
X25962088Y-6370967D02*
X25962088Y-6088985D01*
X25680105Y-6088985D01*
X25680105Y-6370967D01*
X25962088Y-6370967D01*
X25724610Y-10871695D02*
X26123390Y-11270475D01*
X26123390Y-10871695D02*
X25724610Y-11270475D01*
X26064991Y-11212076D02*
X26064991Y-10930093D01*
X25783009Y-10930093D01*
X25783009Y-11212076D01*
X26064991Y-11212076D01*
X26426050Y-4003506D02*
X26824830Y-4402286D01*
X26824830Y-4003506D02*
X26426050Y-4402286D01*
X26766432Y-4343888D02*
X26766432Y-4061905D01*
X26484449Y-4061905D01*
X26484449Y-4343888D01*
X26766432Y-4343888D01*
X27301510Y-8602895D02*
X27700290Y-9001675D01*
X27700290Y-8602895D02*
X27301510Y-9001675D01*
X27641891Y-8943276D02*
X27641891Y-8661293D01*
X27359909Y-8661293D01*
X27359909Y-8943276D01*
X27641891Y-8943276D01*
X28003050Y-6272206D02*
X28401830Y-6670986D01*
X28401830Y-6272206D02*
X28003050Y-6670986D01*
X28343432Y-6612587D02*
X28343432Y-6330605D01*
X28061449Y-6330605D01*
X28061449Y-6612587D01*
X28343432Y-6612587D01*
X29544550Y-4003506D02*
X29943330Y-4402286D01*
X29943330Y-4003506D02*
X29544550Y-4402286D01*
X29884932Y-4343888D02*
X29884932Y-4061905D01*
X29602949Y-4061905D01*
X29602949Y-4343888D01*
X29884932Y-4343888D01*
X29544550Y-8537906D02*
X29943330Y-8936686D01*
X29943330Y-8537906D02*
X29544550Y-8936686D01*
X29884932Y-8878288D02*
X29884932Y-8596305D01*
X29602949Y-8596305D01*
X29602949Y-8878288D01*
X29884932Y-8878288D01*
X31121550Y-6272206D02*
X31520330Y-6670986D01*
X31520330Y-6272206D02*
X31121550Y-6670986D01*
X31461932Y-6612587D02*
X31461932Y-6330605D01*
X31179949Y-6330605D01*
X31179949Y-6612587D01*
X31461932Y-6612587D01*
X32101323Y-3445039D02*
X32500103Y-3843819D01*
X32500103Y-3445039D02*
X32101323Y-3843819D01*
X32441705Y-3785420D02*
X32441705Y-3503437D01*
X32159722Y-3503437D01*
X32159722Y-3785420D01*
X32441705Y-3785420D01*
X32827923Y-11465839D02*
X33226703Y-11864619D01*
X33226703Y-11465839D02*
X32827923Y-11864619D01*
X33168305Y-11806220D02*
X33168305Y-11524237D01*
X32886322Y-11524237D01*
X32886322Y-11806220D01*
X33168305Y-11806220D01*
X33731623Y-5973039D02*
X34130403Y-6371819D01*
X34130403Y-5973039D02*
X33731623Y-6371819D01*
X34072005Y-6313420D02*
X34072005Y-6031437D01*
X33790022Y-6031437D01*
X33790022Y-6313420D01*
X34072005Y-6313420D01*
X34004223Y-8808639D02*
X34403003Y-9207419D01*
X34403003Y-8808639D02*
X34004223Y-9207419D01*
X34344605Y-9149020D02*
X34344605Y-8867037D01*
X34062622Y-8867037D01*
X34062622Y-9149020D01*
X34344605Y-9149020D01*
D11*
X15753610Y-13199476D02*
X15753610Y-12999476D01*
X15801229Y-12999476D01*
X15829801Y-13009000D01*
X15848848Y-13028048D01*
X15858372Y-13047095D01*
X15867896Y-13085190D01*
X15867896Y-13113762D01*
X15858372Y-13151857D01*
X15848848Y-13170905D01*
X15829801Y-13189952D01*
X15801229Y-13199476D01*
X15753610Y-13199476D01*
X15953610Y-13199476D02*
X15953610Y-13066143D01*
X15953610Y-13104238D02*
X15963134Y-13085190D01*
X15972658Y-13075667D01*
X15991705Y-13066143D01*
X16010753Y-13066143D01*
X16077420Y-13199476D02*
X16077420Y-13066143D01*
X16077420Y-12999476D02*
X16067896Y-13009000D01*
X16077420Y-13018524D01*
X16086943Y-13009000D01*
X16077420Y-12999476D01*
X16077420Y-13018524D01*
X16201229Y-13199476D02*
X16182181Y-13189952D01*
X16172658Y-13170905D01*
X16172658Y-12999476D01*
X16305991Y-13199476D02*
X16286943Y-13189952D01*
X16277420Y-13170905D01*
X16277420Y-12999476D01*
X16534562Y-13199476D02*
X16534562Y-12999476D01*
X16601229Y-13142333D01*
X16667896Y-12999476D01*
X16667896Y-13199476D01*
X16848848Y-13199476D02*
X16848848Y-13094714D01*
X16839324Y-13075667D01*
X16820277Y-13066143D01*
X16782182Y-13066143D01*
X16763134Y-13075667D01*
X16848848Y-13189952D02*
X16829801Y-13199476D01*
X16782182Y-13199476D01*
X16763134Y-13189952D01*
X16753610Y-13170905D01*
X16753610Y-13151857D01*
X16763134Y-13132809D01*
X16782182Y-13123286D01*
X16829801Y-13123286D01*
X16848848Y-13113762D01*
X16944086Y-13066143D02*
X16944086Y-13266143D01*
X16944086Y-13075667D02*
X16963134Y-13066143D01*
X17001229Y-13066143D01*
X17020277Y-13075667D01*
X17029801Y-13085190D01*
X17039324Y-13104238D01*
X17039324Y-13161381D01*
X17029801Y-13180428D01*
X17020277Y-13189952D01*
X17001229Y-13199476D01*
X16963134Y-13199476D01*
X16944086Y-13189952D01*
X17125039Y-13180428D02*
X17134563Y-13189952D01*
X17125039Y-13199476D01*
X17115515Y-13189952D01*
X17125039Y-13180428D01*
X17125039Y-13199476D01*
X17125039Y-13075667D02*
X17134563Y-13085190D01*
X17125039Y-13094714D01*
X17115515Y-13085190D01*
X17125039Y-13075667D01*
X17125039Y-13094714D01*
D12*
X15445991Y-13504000D02*
X15495991Y-13554000D01*
X15495991Y-13504000D02*
X15445991Y-13554000D01*
D11*
X15791705Y-13419476D02*
X15810753Y-13419476D01*
X15829801Y-13429000D01*
X15839324Y-13438524D01*
X15848848Y-13457571D01*
X15858372Y-13495667D01*
X15858372Y-13543286D01*
X15848848Y-13581381D01*
X15839324Y-13600428D01*
X15829801Y-13609952D01*
X15810753Y-13619476D01*
X15791705Y-13619476D01*
X15772658Y-13609952D01*
X15763134Y-13600428D01*
X15753610Y-13581381D01*
X15744086Y-13543286D01*
X15744086Y-13495667D01*
X15753610Y-13457571D01*
X15763134Y-13438524D01*
X15772658Y-13429000D01*
X15791705Y-13419476D01*
X15944086Y-13600428D02*
X15953610Y-13609952D01*
X15944086Y-13619476D01*
X15934562Y-13609952D01*
X15944086Y-13600428D01*
X15944086Y-13619476D01*
X16134562Y-13419476D02*
X16039324Y-13419476D01*
X16029801Y-13514714D01*
X16039324Y-13505190D01*
X16058372Y-13495667D01*
X16105991Y-13495667D01*
X16125039Y-13505190D01*
X16134562Y-13514714D01*
X16144086Y-13533762D01*
X16144086Y-13581381D01*
X16134562Y-13600428D01*
X16125039Y-13609952D01*
X16105991Y-13619476D01*
X16058372Y-13619476D01*
X16039324Y-13609952D01*
X16029801Y-13600428D01*
X16267896Y-13419476D02*
X16286943Y-13419476D01*
X16305991Y-13429000D01*
X16315515Y-13438524D01*
X16325039Y-13457571D01*
X16334562Y-13495667D01*
X16334562Y-13543286D01*
X16325039Y-13581381D01*
X16315515Y-13600428D01*
X16305991Y-13609952D01*
X16286943Y-13619476D01*
X16267896Y-13619476D01*
X16248848Y-13609952D01*
X16239324Y-13600428D01*
X16229801Y-13581381D01*
X16220277Y-13543286D01*
X16220277Y-13495667D01*
X16229801Y-13457571D01*
X16239324Y-13438524D01*
X16248848Y-13429000D01*
X16267896Y-13419476D01*
X16458372Y-13419476D02*
X16477420Y-13419476D01*
X16496467Y-13429000D01*
X16505991Y-13438524D01*
X16515515Y-13457571D01*
X16525039Y-13495667D01*
X16525039Y-13543286D01*
X16515515Y-13581381D01*
X16505991Y-13600428D01*
X16496467Y-13609952D01*
X16477420Y-13619476D01*
X16458372Y-13619476D01*
X16439324Y-13609952D01*
X16429801Y-13600428D01*
X16420277Y-13581381D01*
X16410753Y-13543286D01*
X16410753Y-13495667D01*
X16420277Y-13457571D01*
X16429801Y-13438524D01*
X16439324Y-13429000D01*
X16458372Y-13419476D01*
X16610753Y-13619476D02*
X16610753Y-13486143D01*
X16610753Y-13505190D02*
X16620277Y-13495667D01*
X16639324Y-13486143D01*
X16667896Y-13486143D01*
X16686943Y-13495667D01*
X16696467Y-13514714D01*
X16696467Y-13619476D01*
X16696467Y-13514714D02*
X16705991Y-13495667D01*
X16725039Y-13486143D01*
X16753610Y-13486143D01*
X16772658Y-13495667D01*
X16782182Y-13514714D01*
X16782182Y-13619476D01*
X16877420Y-13619476D02*
X16877420Y-13486143D01*
X16877420Y-13505190D02*
X16886943Y-13495667D01*
X16905991Y-13486143D01*
X16934563Y-13486143D01*
X16953610Y-13495667D01*
X16963134Y-13514714D01*
X16963134Y-13619476D01*
X16963134Y-13514714D02*
X16972658Y-13495667D01*
X16991705Y-13486143D01*
X17020277Y-13486143D01*
X17039324Y-13495667D01*
X17048848Y-13514714D01*
X17048848Y-13619476D01*
X17439324Y-13409952D02*
X17267896Y-13667095D01*
X17696467Y-13419476D02*
X17715515Y-13419476D01*
X17734563Y-13429000D01*
X17744086Y-13438524D01*
X17753610Y-13457571D01*
X17763134Y-13495667D01*
X17763134Y-13543286D01*
X17753610Y-13581381D01*
X17744086Y-13600428D01*
X17734563Y-13609952D01*
X17715515Y-13619476D01*
X17696467Y-13619476D01*
X17677420Y-13609952D01*
X17667896Y-13600428D01*
X17658372Y-13581381D01*
X17648848Y-13543286D01*
X17648848Y-13495667D01*
X17658372Y-13457571D01*
X17667896Y-13438524D01*
X17677420Y-13429000D01*
X17696467Y-13419476D01*
X17848848Y-13600428D02*
X17858372Y-13609952D01*
X17848848Y-13619476D01*
X17839324Y-13609952D01*
X17848848Y-13600428D01*
X17848848Y-13619476D01*
X17982182Y-13419476D02*
X18001229Y-13419476D01*
X18020277Y-13429000D01*
X18029801Y-13438524D01*
X18039324Y-13457571D01*
X18048848Y-13495667D01*
X18048848Y-13543286D01*
X18039324Y-13581381D01*
X18029801Y-13600428D01*
X18020277Y-13609952D01*
X18001229Y-13619476D01*
X17982182Y-13619476D01*
X17963134Y-13609952D01*
X17953610Y-13600428D01*
X17944086Y-13581381D01*
X17934563Y-13543286D01*
X17934563Y-13495667D01*
X17944086Y-13457571D01*
X17953610Y-13438524D01*
X17963134Y-13429000D01*
X17982182Y-13419476D01*
X18239324Y-13619476D02*
X18125039Y-13619476D01*
X18182182Y-13619476D02*
X18182182Y-13419476D01*
X18163134Y-13448048D01*
X18144086Y-13467095D01*
X18125039Y-13476619D01*
X18334563Y-13619476D02*
X18372658Y-13619476D01*
X18391705Y-13609952D01*
X18401229Y-13600428D01*
X18420277Y-13571857D01*
X18429801Y-13533762D01*
X18429801Y-13457571D01*
X18420277Y-13438524D01*
X18410753Y-13429000D01*
X18391705Y-13419476D01*
X18353610Y-13419476D01*
X18334563Y-13429000D01*
X18325039Y-13438524D01*
X18315515Y-13457571D01*
X18315515Y-13505190D01*
X18325039Y-13524238D01*
X18334563Y-13533762D01*
X18353610Y-13543286D01*
X18391705Y-13543286D01*
X18410753Y-13533762D01*
X18420277Y-13524238D01*
X18429801Y-13505190D01*
X18496467Y-13419476D02*
X18629801Y-13419476D01*
X18544086Y-13619476D01*
X18696467Y-13419476D02*
X18696467Y-13457571D01*
X18772658Y-13419476D02*
X18772658Y-13457571D01*
X19067896Y-13695667D02*
X19058372Y-13686143D01*
X19039324Y-13657571D01*
X19029801Y-13638524D01*
X19020277Y-13609952D01*
X19010753Y-13562333D01*
X19010753Y-13524238D01*
X19020277Y-13476619D01*
X19029801Y-13448048D01*
X19039324Y-13429000D01*
X19058372Y-13400428D01*
X19067896Y-13390905D01*
X19134563Y-13438524D02*
X19144086Y-13429000D01*
X19163134Y-13419476D01*
X19210753Y-13419476D01*
X19229801Y-13429000D01*
X19239324Y-13438524D01*
X19248848Y-13457571D01*
X19248848Y-13476619D01*
X19239324Y-13505190D01*
X19125039Y-13619476D01*
X19248848Y-13619476D01*
X19420277Y-13486143D02*
X19420277Y-13619476D01*
X19372658Y-13409952D02*
X19325039Y-13552809D01*
X19448848Y-13552809D01*
X19677420Y-13619476D02*
X19677420Y-13419476D01*
X19763134Y-13619476D02*
X19763134Y-13514714D01*
X19753610Y-13495667D01*
X19734563Y-13486143D01*
X19705991Y-13486143D01*
X19686943Y-13495667D01*
X19677420Y-13505190D01*
X19886943Y-13619476D02*
X19867896Y-13609952D01*
X19858372Y-13600428D01*
X19848848Y-13581381D01*
X19848848Y-13524238D01*
X19858372Y-13505190D01*
X19867896Y-13495667D01*
X19886943Y-13486143D01*
X19915515Y-13486143D01*
X19934563Y-13495667D01*
X19944086Y-13505190D01*
X19953610Y-13524238D01*
X19953610Y-13581381D01*
X19944086Y-13600428D01*
X19934563Y-13609952D01*
X19915515Y-13619476D01*
X19886943Y-13619476D01*
X20067896Y-13619476D02*
X20048848Y-13609952D01*
X20039324Y-13590905D01*
X20039324Y-13419476D01*
X20220277Y-13609952D02*
X20201229Y-13619476D01*
X20163134Y-13619476D01*
X20144086Y-13609952D01*
X20134563Y-13590905D01*
X20134563Y-13514714D01*
X20144086Y-13495667D01*
X20163134Y-13486143D01*
X20201229Y-13486143D01*
X20220277Y-13495667D01*
X20229801Y-13514714D01*
X20229801Y-13533762D01*
X20134563Y-13552809D01*
X20305991Y-13609952D02*
X20325039Y-13619476D01*
X20363134Y-13619476D01*
X20382182Y-13609952D01*
X20391705Y-13590905D01*
X20391705Y-13581381D01*
X20382182Y-13562333D01*
X20363134Y-13552809D01*
X20334563Y-13552809D01*
X20315515Y-13543286D01*
X20305991Y-13524238D01*
X20305991Y-13514714D01*
X20315515Y-13495667D01*
X20334563Y-13486143D01*
X20363134Y-13486143D01*
X20382182Y-13495667D01*
X20458372Y-13695667D02*
X20467896Y-13686143D01*
X20486943Y-13657571D01*
X20496467Y-13638524D01*
X20505991Y-13609952D01*
X20515515Y-13562333D01*
X20515515Y-13524238D01*
X20505991Y-13476619D01*
X20496467Y-13448048D01*
X20486943Y-13429000D01*
X20467896Y-13400428D01*
X20458372Y-13390905D01*
X20820277Y-13695667D02*
X20810753Y-13686143D01*
X20791705Y-13657571D01*
X20782182Y-13638524D01*
X20772658Y-13609952D01*
X20763134Y-13562333D01*
X20763134Y-13524238D01*
X20772658Y-13476619D01*
X20782182Y-13448048D01*
X20791705Y-13429000D01*
X20810753Y-13400428D01*
X20820277Y-13390905D01*
X20896467Y-13486143D02*
X20896467Y-13619476D01*
X20896467Y-13505190D02*
X20905991Y-13495667D01*
X20925039Y-13486143D01*
X20953610Y-13486143D01*
X20972658Y-13495667D01*
X20982182Y-13514714D01*
X20982182Y-13619476D01*
X21105991Y-13619476D02*
X21086943Y-13609952D01*
X21077420Y-13600428D01*
X21067896Y-13581381D01*
X21067896Y-13524238D01*
X21077420Y-13505190D01*
X21086943Y-13495667D01*
X21105991Y-13486143D01*
X21134563Y-13486143D01*
X21153610Y-13495667D01*
X21163134Y-13505190D01*
X21172658Y-13524238D01*
X21172658Y-13581381D01*
X21163134Y-13600428D01*
X21153610Y-13609952D01*
X21134563Y-13619476D01*
X21105991Y-13619476D01*
X21229801Y-13486143D02*
X21305991Y-13486143D01*
X21258372Y-13419476D02*
X21258372Y-13590905D01*
X21267896Y-13609952D01*
X21286943Y-13619476D01*
X21305991Y-13619476D01*
X21525039Y-13486143D02*
X21525039Y-13686143D01*
X21525039Y-13495667D02*
X21544086Y-13486143D01*
X21582182Y-13486143D01*
X21601229Y-13495667D01*
X21610753Y-13505190D01*
X21620277Y-13524238D01*
X21620277Y-13581381D01*
X21610753Y-13600428D01*
X21601229Y-13609952D01*
X21582182Y-13619476D01*
X21544086Y-13619476D01*
X21525039Y-13609952D01*
X21734563Y-13619476D02*
X21715515Y-13609952D01*
X21705991Y-13590905D01*
X21705991Y-13419476D01*
X21896467Y-13619476D02*
X21896467Y-13514714D01*
X21886943Y-13495667D01*
X21867896Y-13486143D01*
X21829801Y-13486143D01*
X21810753Y-13495667D01*
X21896467Y-13609952D02*
X21877420Y-13619476D01*
X21829801Y-13619476D01*
X21810753Y-13609952D01*
X21801229Y-13590905D01*
X21801229Y-13571857D01*
X21810753Y-13552809D01*
X21829801Y-13543286D01*
X21877420Y-13543286D01*
X21896467Y-13533762D01*
X21963134Y-13486143D02*
X22039324Y-13486143D01*
X21991705Y-13419476D02*
X21991705Y-13590905D01*
X22001229Y-13609952D01*
X22020277Y-13619476D01*
X22039324Y-13619476D01*
X22182182Y-13609952D02*
X22163134Y-13619476D01*
X22125039Y-13619476D01*
X22105991Y-13609952D01*
X22096467Y-13590905D01*
X22096467Y-13514714D01*
X22105991Y-13495667D01*
X22125039Y-13486143D01*
X22163134Y-13486143D01*
X22182182Y-13495667D01*
X22191705Y-13514714D01*
X22191705Y-13533762D01*
X22096467Y-13552809D01*
X22363134Y-13619476D02*
X22363134Y-13419476D01*
X22363134Y-13609952D02*
X22344086Y-13619476D01*
X22305991Y-13619476D01*
X22286943Y-13609952D01*
X22277420Y-13600428D01*
X22267896Y-13581381D01*
X22267896Y-13524238D01*
X22277420Y-13505190D01*
X22286943Y-13495667D01*
X22305991Y-13486143D01*
X22344086Y-13486143D01*
X22363134Y-13495667D01*
X22439324Y-13695667D02*
X22448848Y-13686143D01*
X22467896Y-13657571D01*
X22477420Y-13638524D01*
X22486943Y-13609952D01*
X22496467Y-13562333D01*
X22496467Y-13524238D01*
X22486943Y-13476619D01*
X22477420Y-13448048D01*
X22467896Y-13429000D01*
X22448848Y-13400428D01*
X22439324Y-13390905D01*
D13*
X15495991Y-13793000D02*
G75*
G03*
X15495991Y-13793000I-32500J0D01*
G01*
D11*
X15791705Y-13683476D02*
X15810753Y-13683476D01*
X15829801Y-13693000D01*
X15839324Y-13702524D01*
X15848848Y-13721571D01*
X15858372Y-13759667D01*
X15858372Y-13807286D01*
X15848848Y-13845381D01*
X15839324Y-13864428D01*
X15829801Y-13873952D01*
X15810753Y-13883476D01*
X15791705Y-13883476D01*
X15772658Y-13873952D01*
X15763134Y-13864428D01*
X15753610Y-13845381D01*
X15744086Y-13807286D01*
X15744086Y-13759667D01*
X15753610Y-13721571D01*
X15763134Y-13702524D01*
X15772658Y-13693000D01*
X15791705Y-13683476D01*
X15944086Y-13864428D02*
X15953610Y-13873952D01*
X15944086Y-13883476D01*
X15934562Y-13873952D01*
X15944086Y-13864428D01*
X15944086Y-13883476D01*
X16125039Y-13683476D02*
X16086943Y-13683476D01*
X16067896Y-13693000D01*
X16058372Y-13702524D01*
X16039324Y-13731095D01*
X16029801Y-13769190D01*
X16029801Y-13845381D01*
X16039324Y-13864428D01*
X16048848Y-13873952D01*
X16067896Y-13883476D01*
X16105991Y-13883476D01*
X16125039Y-13873952D01*
X16134562Y-13864428D01*
X16144086Y-13845381D01*
X16144086Y-13797762D01*
X16134562Y-13778714D01*
X16125039Y-13769190D01*
X16105991Y-13759667D01*
X16067896Y-13759667D01*
X16048848Y-13769190D01*
X16039324Y-13778714D01*
X16029801Y-13797762D01*
X16325039Y-13683476D02*
X16229801Y-13683476D01*
X16220277Y-13778714D01*
X16229801Y-13769190D01*
X16248848Y-13759667D01*
X16296467Y-13759667D01*
X16315515Y-13769190D01*
X16325039Y-13778714D01*
X16334562Y-13797762D01*
X16334562Y-13845381D01*
X16325039Y-13864428D01*
X16315515Y-13873952D01*
X16296467Y-13883476D01*
X16248848Y-13883476D01*
X16229801Y-13873952D01*
X16220277Y-13864428D01*
X16458372Y-13683476D02*
X16477420Y-13683476D01*
X16496467Y-13693000D01*
X16505991Y-13702524D01*
X16515515Y-13721571D01*
X16525039Y-13759667D01*
X16525039Y-13807286D01*
X16515515Y-13845381D01*
X16505991Y-13864428D01*
X16496467Y-13873952D01*
X16477420Y-13883476D01*
X16458372Y-13883476D01*
X16439324Y-13873952D01*
X16429801Y-13864428D01*
X16420277Y-13845381D01*
X16410753Y-13807286D01*
X16410753Y-13759667D01*
X16420277Y-13721571D01*
X16429801Y-13702524D01*
X16439324Y-13693000D01*
X16458372Y-13683476D01*
X16610753Y-13883476D02*
X16610753Y-13750143D01*
X16610753Y-13769190D02*
X16620277Y-13759667D01*
X16639324Y-13750143D01*
X16667896Y-13750143D01*
X16686943Y-13759667D01*
X16696467Y-13778714D01*
X16696467Y-13883476D01*
X16696467Y-13778714D02*
X16705991Y-13759667D01*
X16725039Y-13750143D01*
X16753610Y-13750143D01*
X16772658Y-13759667D01*
X16782182Y-13778714D01*
X16782182Y-13883476D01*
X16877420Y-13883476D02*
X16877420Y-13750143D01*
X16877420Y-13769190D02*
X16886943Y-13759667D01*
X16905991Y-13750143D01*
X16934563Y-13750143D01*
X16953610Y-13759667D01*
X16963134Y-13778714D01*
X16963134Y-13883476D01*
X16963134Y-13778714D02*
X16972658Y-13759667D01*
X16991705Y-13750143D01*
X17020277Y-13750143D01*
X17039324Y-13759667D01*
X17048848Y-13778714D01*
X17048848Y-13883476D01*
X17439324Y-13673952D02*
X17267896Y-13931095D01*
X17696467Y-13683476D02*
X17715515Y-13683476D01*
X17734563Y-13693000D01*
X17744086Y-13702524D01*
X17753610Y-13721571D01*
X17763134Y-13759667D01*
X17763134Y-13807286D01*
X17753610Y-13845381D01*
X17744086Y-13864428D01*
X17734563Y-13873952D01*
X17715515Y-13883476D01*
X17696467Y-13883476D01*
X17677420Y-13873952D01*
X17667896Y-13864428D01*
X17658372Y-13845381D01*
X17648848Y-13807286D01*
X17648848Y-13759667D01*
X17658372Y-13721571D01*
X17667896Y-13702524D01*
X17677420Y-13693000D01*
X17696467Y-13683476D01*
X17848848Y-13864428D02*
X17858372Y-13873952D01*
X17848848Y-13883476D01*
X17839324Y-13873952D01*
X17848848Y-13864428D01*
X17848848Y-13883476D01*
X17982182Y-13683476D02*
X18001229Y-13683476D01*
X18020277Y-13693000D01*
X18029801Y-13702524D01*
X18039324Y-13721571D01*
X18048848Y-13759667D01*
X18048848Y-13807286D01*
X18039324Y-13845381D01*
X18029801Y-13864428D01*
X18020277Y-13873952D01*
X18001229Y-13883476D01*
X17982182Y-13883476D01*
X17963134Y-13873952D01*
X17953610Y-13864428D01*
X17944086Y-13845381D01*
X17934563Y-13807286D01*
X17934563Y-13759667D01*
X17944086Y-13721571D01*
X17953610Y-13702524D01*
X17963134Y-13693000D01*
X17982182Y-13683476D01*
X18125039Y-13702524D02*
X18134563Y-13693000D01*
X18153610Y-13683476D01*
X18201229Y-13683476D01*
X18220277Y-13693000D01*
X18229801Y-13702524D01*
X18239324Y-13721571D01*
X18239324Y-13740619D01*
X18229801Y-13769190D01*
X18115515Y-13883476D01*
X18239324Y-13883476D01*
X18420277Y-13683476D02*
X18325039Y-13683476D01*
X18315515Y-13778714D01*
X18325039Y-13769190D01*
X18344086Y-13759667D01*
X18391705Y-13759667D01*
X18410753Y-13769190D01*
X18420277Y-13778714D01*
X18429801Y-13797762D01*
X18429801Y-13845381D01*
X18420277Y-13864428D01*
X18410753Y-13873952D01*
X18391705Y-13883476D01*
X18344086Y-13883476D01*
X18325039Y-13873952D01*
X18315515Y-13864428D01*
X18601229Y-13683476D02*
X18563134Y-13683476D01*
X18544086Y-13693000D01*
X18534563Y-13702524D01*
X18515515Y-13731095D01*
X18505991Y-13769190D01*
X18505991Y-13845381D01*
X18515515Y-13864428D01*
X18525039Y-13873952D01*
X18544086Y-13883476D01*
X18582182Y-13883476D01*
X18601229Y-13873952D01*
X18610753Y-13864428D01*
X18620277Y-13845381D01*
X18620277Y-13797762D01*
X18610753Y-13778714D01*
X18601229Y-13769190D01*
X18582182Y-13759667D01*
X18544086Y-13759667D01*
X18525039Y-13769190D01*
X18515515Y-13778714D01*
X18505991Y-13797762D01*
X18696467Y-13683476D02*
X18696467Y-13721571D01*
X18772658Y-13683476D02*
X18772658Y-13721571D01*
X19067896Y-13959667D02*
X19058372Y-13950143D01*
X19039324Y-13921571D01*
X19029801Y-13902524D01*
X19020277Y-13873952D01*
X19010753Y-13826333D01*
X19010753Y-13788238D01*
X19020277Y-13740619D01*
X19029801Y-13712048D01*
X19039324Y-13693000D01*
X19058372Y-13664428D01*
X19067896Y-13654905D01*
X19248848Y-13883476D02*
X19134563Y-13883476D01*
X19191705Y-13883476D02*
X19191705Y-13683476D01*
X19172658Y-13712048D01*
X19153610Y-13731095D01*
X19134563Y-13740619D01*
X19486943Y-13883476D02*
X19486943Y-13683476D01*
X19572658Y-13883476D02*
X19572658Y-13778714D01*
X19563134Y-13759667D01*
X19544086Y-13750143D01*
X19515515Y-13750143D01*
X19496467Y-13759667D01*
X19486943Y-13769190D01*
X19696467Y-13883476D02*
X19677420Y-13873952D01*
X19667896Y-13864428D01*
X19658372Y-13845381D01*
X19658372Y-13788238D01*
X19667896Y-13769190D01*
X19677420Y-13759667D01*
X19696467Y-13750143D01*
X19725039Y-13750143D01*
X19744086Y-13759667D01*
X19753610Y-13769190D01*
X19763134Y-13788238D01*
X19763134Y-13845381D01*
X19753610Y-13864428D01*
X19744086Y-13873952D01*
X19725039Y-13883476D01*
X19696467Y-13883476D01*
X19877420Y-13883476D02*
X19858372Y-13873952D01*
X19848848Y-13854905D01*
X19848848Y-13683476D01*
X20029801Y-13873952D02*
X20010753Y-13883476D01*
X19972658Y-13883476D01*
X19953610Y-13873952D01*
X19944086Y-13854905D01*
X19944086Y-13778714D01*
X19953610Y-13759667D01*
X19972658Y-13750143D01*
X20010753Y-13750143D01*
X20029801Y-13759667D01*
X20039324Y-13778714D01*
X20039324Y-13797762D01*
X19944086Y-13816809D01*
X20115515Y-13873952D02*
X20134563Y-13883476D01*
X20172658Y-13883476D01*
X20191705Y-13873952D01*
X20201229Y-13854905D01*
X20201229Y-13845381D01*
X20191705Y-13826333D01*
X20172658Y-13816809D01*
X20144086Y-13816809D01*
X20125039Y-13807286D01*
X20115515Y-13788238D01*
X20115515Y-13778714D01*
X20125039Y-13759667D01*
X20144086Y-13750143D01*
X20172658Y-13750143D01*
X20191705Y-13759667D01*
X20439324Y-13807286D02*
X20591705Y-13807286D01*
X20515515Y-13883476D02*
X20515515Y-13731095D01*
X20944086Y-13883476D02*
X20829801Y-13883476D01*
X20886943Y-13883476D02*
X20886943Y-13683476D01*
X20867896Y-13712048D01*
X20848848Y-13731095D01*
X20829801Y-13740619D01*
X21172658Y-13873952D02*
X21191705Y-13883476D01*
X21229801Y-13883476D01*
X21248848Y-13873952D01*
X21258372Y-13854905D01*
X21258372Y-13845381D01*
X21248848Y-13826333D01*
X21229801Y-13816809D01*
X21201229Y-13816809D01*
X21182182Y-13807286D01*
X21172658Y-13788238D01*
X21172658Y-13778714D01*
X21182182Y-13759667D01*
X21201229Y-13750143D01*
X21229801Y-13750143D01*
X21248848Y-13759667D01*
X21372658Y-13883476D02*
X21353610Y-13873952D01*
X21344086Y-13854905D01*
X21344086Y-13683476D01*
X21477420Y-13883476D02*
X21458372Y-13873952D01*
X21448848Y-13864428D01*
X21439324Y-13845381D01*
X21439324Y-13788238D01*
X21448848Y-13769190D01*
X21458372Y-13759667D01*
X21477420Y-13750143D01*
X21505991Y-13750143D01*
X21525039Y-13759667D01*
X21534563Y-13769190D01*
X21544086Y-13788238D01*
X21544086Y-13845381D01*
X21534563Y-13864428D01*
X21525039Y-13873952D01*
X21505991Y-13883476D01*
X21477420Y-13883476D01*
X21601229Y-13750143D02*
X21677420Y-13750143D01*
X21629801Y-13683476D02*
X21629801Y-13854905D01*
X21639324Y-13873952D01*
X21658372Y-13883476D01*
X21677420Y-13883476D01*
X21725039Y-13959667D02*
X21734563Y-13950143D01*
X21753610Y-13921571D01*
X21763134Y-13902524D01*
X21772658Y-13873952D01*
X21782182Y-13826333D01*
X21782182Y-13788238D01*
X21772658Y-13740619D01*
X21763134Y-13712048D01*
X21753610Y-13693000D01*
X21734563Y-13664428D01*
X21725039Y-13654905D01*
X22086943Y-13959667D02*
X22077420Y-13950143D01*
X22058372Y-13921571D01*
X22048848Y-13902524D01*
X22039324Y-13873952D01*
X22029801Y-13826333D01*
X22029801Y-13788238D01*
X22039324Y-13740619D01*
X22048848Y-13712048D01*
X22058372Y-13693000D01*
X22077420Y-13664428D01*
X22086943Y-13654905D01*
X22163134Y-13750143D02*
X22163134Y-13883476D01*
X22163134Y-13769190D02*
X22172658Y-13759667D01*
X22191705Y-13750143D01*
X22220277Y-13750143D01*
X22239324Y-13759667D01*
X22248848Y-13778714D01*
X22248848Y-13883476D01*
X22372658Y-13883476D02*
X22353610Y-13873952D01*
X22344086Y-13864428D01*
X22334563Y-13845381D01*
X22334563Y-13788238D01*
X22344086Y-13769190D01*
X22353610Y-13759667D01*
X22372658Y-13750143D01*
X22401229Y-13750143D01*
X22420277Y-13759667D01*
X22429801Y-13769190D01*
X22439324Y-13788238D01*
X22439324Y-13845381D01*
X22429801Y-13864428D01*
X22420277Y-13873952D01*
X22401229Y-13883476D01*
X22372658Y-13883476D01*
X22496467Y-13750143D02*
X22572658Y-13750143D01*
X22525039Y-13683476D02*
X22525039Y-13854905D01*
X22534562Y-13873952D01*
X22553610Y-13883476D01*
X22572658Y-13883476D01*
X22791705Y-13750143D02*
X22791705Y-13950143D01*
X22791705Y-13759667D02*
X22810753Y-13750143D01*
X22848848Y-13750143D01*
X22867896Y-13759667D01*
X22877420Y-13769190D01*
X22886943Y-13788238D01*
X22886943Y-13845381D01*
X22877420Y-13864428D01*
X22867896Y-13873952D01*
X22848848Y-13883476D01*
X22810753Y-13883476D01*
X22791705Y-13873952D01*
X23001229Y-13883476D02*
X22982181Y-13873952D01*
X22972658Y-13854905D01*
X22972658Y-13683476D01*
X23163134Y-13883476D02*
X23163134Y-13778714D01*
X23153610Y-13759667D01*
X23134562Y-13750143D01*
X23096467Y-13750143D01*
X23077420Y-13759667D01*
X23163134Y-13873952D02*
X23144086Y-13883476D01*
X23096467Y-13883476D01*
X23077420Y-13873952D01*
X23067896Y-13854905D01*
X23067896Y-13835857D01*
X23077420Y-13816809D01*
X23096467Y-13807286D01*
X23144086Y-13807286D01*
X23163134Y-13797762D01*
X23229801Y-13750143D02*
X23305991Y-13750143D01*
X23258372Y-13683476D02*
X23258372Y-13854905D01*
X23267896Y-13873952D01*
X23286943Y-13883476D01*
X23305991Y-13883476D01*
X23448848Y-13873952D02*
X23429801Y-13883476D01*
X23391705Y-13883476D01*
X23372658Y-13873952D01*
X23363134Y-13854905D01*
X23363134Y-13778714D01*
X23372658Y-13759667D01*
X23391705Y-13750143D01*
X23429801Y-13750143D01*
X23448848Y-13759667D01*
X23458372Y-13778714D01*
X23458372Y-13797762D01*
X23363134Y-13816809D01*
X23629801Y-13883476D02*
X23629801Y-13683476D01*
X23629801Y-13873952D02*
X23610753Y-13883476D01*
X23572658Y-13883476D01*
X23553610Y-13873952D01*
X23544086Y-13864428D01*
X23534562Y-13845381D01*
X23534562Y-13788238D01*
X23544086Y-13769190D01*
X23553610Y-13759667D01*
X23572658Y-13750143D01*
X23610753Y-13750143D01*
X23629801Y-13759667D01*
X23705991Y-13959667D02*
X23715515Y-13950143D01*
X23734562Y-13921571D01*
X23744086Y-13902524D01*
X23753610Y-13873952D01*
X23763134Y-13826333D01*
X23763134Y-13788238D01*
X23753610Y-13740619D01*
X23744086Y-13712048D01*
X23734562Y-13693000D01*
X23715515Y-13664428D01*
X23705991Y-13654905D01*
D14*
X15458491Y-14019500D02*
X15458491Y-14094500D01*
X15420991Y-14057000D02*
X15495991Y-14057000D01*
D11*
X15791705Y-13947476D02*
X15810753Y-13947476D01*
X15829801Y-13957000D01*
X15839324Y-13966524D01*
X15848848Y-13985571D01*
X15858372Y-14023667D01*
X15858372Y-14071286D01*
X15848848Y-14109381D01*
X15839324Y-14128428D01*
X15829801Y-14137952D01*
X15810753Y-14147476D01*
X15791705Y-14147476D01*
X15772658Y-14137952D01*
X15763134Y-14128428D01*
X15753610Y-14109381D01*
X15744086Y-14071286D01*
X15744086Y-14023667D01*
X15753610Y-13985571D01*
X15763134Y-13966524D01*
X15772658Y-13957000D01*
X15791705Y-13947476D01*
X15944086Y-14128428D02*
X15953610Y-14137952D01*
X15944086Y-14147476D01*
X15934562Y-14137952D01*
X15944086Y-14128428D01*
X15944086Y-14147476D01*
X16020277Y-13947476D02*
X16153610Y-13947476D01*
X16067896Y-14147476D01*
X16325039Y-13947476D02*
X16229801Y-13947476D01*
X16220277Y-14042714D01*
X16229801Y-14033190D01*
X16248848Y-14023667D01*
X16296467Y-14023667D01*
X16315515Y-14033190D01*
X16325039Y-14042714D01*
X16334562Y-14061762D01*
X16334562Y-14109381D01*
X16325039Y-14128428D01*
X16315515Y-14137952D01*
X16296467Y-14147476D01*
X16248848Y-14147476D01*
X16229801Y-14137952D01*
X16220277Y-14128428D01*
X16458372Y-13947476D02*
X16477420Y-13947476D01*
X16496467Y-13957000D01*
X16505991Y-13966524D01*
X16515515Y-13985571D01*
X16525039Y-14023667D01*
X16525039Y-14071286D01*
X16515515Y-14109381D01*
X16505991Y-14128428D01*
X16496467Y-14137952D01*
X16477420Y-14147476D01*
X16458372Y-14147476D01*
X16439324Y-14137952D01*
X16429801Y-14128428D01*
X16420277Y-14109381D01*
X16410753Y-14071286D01*
X16410753Y-14023667D01*
X16420277Y-13985571D01*
X16429801Y-13966524D01*
X16439324Y-13957000D01*
X16458372Y-13947476D01*
X16610753Y-14147476D02*
X16610753Y-14014143D01*
X16610753Y-14033190D02*
X16620277Y-14023667D01*
X16639324Y-14014143D01*
X16667896Y-14014143D01*
X16686943Y-14023667D01*
X16696467Y-14042714D01*
X16696467Y-14147476D01*
X16696467Y-14042714D02*
X16705991Y-14023667D01*
X16725039Y-14014143D01*
X16753610Y-14014143D01*
X16772658Y-14023667D01*
X16782182Y-14042714D01*
X16782182Y-14147476D01*
X16877420Y-14147476D02*
X16877420Y-14014143D01*
X16877420Y-14033190D02*
X16886943Y-14023667D01*
X16905991Y-14014143D01*
X16934563Y-14014143D01*
X16953610Y-14023667D01*
X16963134Y-14042714D01*
X16963134Y-14147476D01*
X16963134Y-14042714D02*
X16972658Y-14023667D01*
X16991705Y-14014143D01*
X17020277Y-14014143D01*
X17039324Y-14023667D01*
X17048848Y-14042714D01*
X17048848Y-14147476D01*
X17439324Y-13937952D02*
X17267896Y-14195095D01*
X17696467Y-13947476D02*
X17715515Y-13947476D01*
X17734563Y-13957000D01*
X17744086Y-13966524D01*
X17753610Y-13985571D01*
X17763134Y-14023667D01*
X17763134Y-14071286D01*
X17753610Y-14109381D01*
X17744086Y-14128428D01*
X17734563Y-14137952D01*
X17715515Y-14147476D01*
X17696467Y-14147476D01*
X17677420Y-14137952D01*
X17667896Y-14128428D01*
X17658372Y-14109381D01*
X17648848Y-14071286D01*
X17648848Y-14023667D01*
X17658372Y-13985571D01*
X17667896Y-13966524D01*
X17677420Y-13957000D01*
X17696467Y-13947476D01*
X17848848Y-14128428D02*
X17858372Y-14137952D01*
X17848848Y-14147476D01*
X17839324Y-14137952D01*
X17848848Y-14128428D01*
X17848848Y-14147476D01*
X17982182Y-13947476D02*
X18001229Y-13947476D01*
X18020277Y-13957000D01*
X18029801Y-13966524D01*
X18039324Y-13985571D01*
X18048848Y-14023667D01*
X18048848Y-14071286D01*
X18039324Y-14109381D01*
X18029801Y-14128428D01*
X18020277Y-14137952D01*
X18001229Y-14147476D01*
X17982182Y-14147476D01*
X17963134Y-14137952D01*
X17953610Y-14128428D01*
X17944086Y-14109381D01*
X17934563Y-14071286D01*
X17934563Y-14023667D01*
X17944086Y-13985571D01*
X17953610Y-13966524D01*
X17963134Y-13957000D01*
X17982182Y-13947476D01*
X18125039Y-13966524D02*
X18134563Y-13957000D01*
X18153610Y-13947476D01*
X18201229Y-13947476D01*
X18220277Y-13957000D01*
X18229801Y-13966524D01*
X18239324Y-13985571D01*
X18239324Y-14004619D01*
X18229801Y-14033190D01*
X18115515Y-14147476D01*
X18239324Y-14147476D01*
X18334563Y-14147476D02*
X18372658Y-14147476D01*
X18391705Y-14137952D01*
X18401229Y-14128428D01*
X18420277Y-14099857D01*
X18429801Y-14061762D01*
X18429801Y-13985571D01*
X18420277Y-13966524D01*
X18410753Y-13957000D01*
X18391705Y-13947476D01*
X18353610Y-13947476D01*
X18334563Y-13957000D01*
X18325039Y-13966524D01*
X18315515Y-13985571D01*
X18315515Y-14033190D01*
X18325039Y-14052238D01*
X18334563Y-14061762D01*
X18353610Y-14071286D01*
X18391705Y-14071286D01*
X18410753Y-14061762D01*
X18420277Y-14052238D01*
X18429801Y-14033190D01*
X18610753Y-13947476D02*
X18515515Y-13947476D01*
X18505991Y-14042714D01*
X18515515Y-14033190D01*
X18534563Y-14023667D01*
X18582182Y-14023667D01*
X18601229Y-14033190D01*
X18610753Y-14042714D01*
X18620277Y-14061762D01*
X18620277Y-14109381D01*
X18610753Y-14128428D01*
X18601229Y-14137952D01*
X18582182Y-14147476D01*
X18534563Y-14147476D01*
X18515515Y-14137952D01*
X18505991Y-14128428D01*
X18696467Y-13947476D02*
X18696467Y-13985571D01*
X18772658Y-13947476D02*
X18772658Y-13985571D01*
X19067896Y-14223667D02*
X19058372Y-14214143D01*
X19039324Y-14185571D01*
X19029801Y-14166524D01*
X19020277Y-14137952D01*
X19010753Y-14090333D01*
X19010753Y-14052238D01*
X19020277Y-14004619D01*
X19029801Y-13976048D01*
X19039324Y-13957000D01*
X19058372Y-13928428D01*
X19067896Y-13918905D01*
X19134563Y-13966524D02*
X19144086Y-13957000D01*
X19163134Y-13947476D01*
X19210753Y-13947476D01*
X19229801Y-13957000D01*
X19239324Y-13966524D01*
X19248848Y-13985571D01*
X19248848Y-14004619D01*
X19239324Y-14033190D01*
X19125039Y-14147476D01*
X19248848Y-14147476D01*
X19363134Y-14033190D02*
X19344086Y-14023667D01*
X19334563Y-14014143D01*
X19325039Y-13995095D01*
X19325039Y-13985571D01*
X19334563Y-13966524D01*
X19344086Y-13957000D01*
X19363134Y-13947476D01*
X19401229Y-13947476D01*
X19420277Y-13957000D01*
X19429801Y-13966524D01*
X19439324Y-13985571D01*
X19439324Y-13995095D01*
X19429801Y-14014143D01*
X19420277Y-14023667D01*
X19401229Y-14033190D01*
X19363134Y-14033190D01*
X19344086Y-14042714D01*
X19334563Y-14052238D01*
X19325039Y-14071286D01*
X19325039Y-14109381D01*
X19334563Y-14128428D01*
X19344086Y-14137952D01*
X19363134Y-14147476D01*
X19401229Y-14147476D01*
X19420277Y-14137952D01*
X19429801Y-14128428D01*
X19439324Y-14109381D01*
X19439324Y-14071286D01*
X19429801Y-14052238D01*
X19420277Y-14042714D01*
X19401229Y-14033190D01*
X19677420Y-14147476D02*
X19677420Y-13947476D01*
X19763134Y-14147476D02*
X19763134Y-14042714D01*
X19753610Y-14023667D01*
X19734563Y-14014143D01*
X19705991Y-14014143D01*
X19686943Y-14023667D01*
X19677420Y-14033190D01*
X19886943Y-14147476D02*
X19867896Y-14137952D01*
X19858372Y-14128428D01*
X19848848Y-14109381D01*
X19848848Y-14052238D01*
X19858372Y-14033190D01*
X19867896Y-14023667D01*
X19886943Y-14014143D01*
X19915515Y-14014143D01*
X19934563Y-14023667D01*
X19944086Y-14033190D01*
X19953610Y-14052238D01*
X19953610Y-14109381D01*
X19944086Y-14128428D01*
X19934563Y-14137952D01*
X19915515Y-14147476D01*
X19886943Y-14147476D01*
X20067896Y-14147476D02*
X20048848Y-14137952D01*
X20039324Y-14118905D01*
X20039324Y-13947476D01*
X20220277Y-14137952D02*
X20201229Y-14147476D01*
X20163134Y-14147476D01*
X20144086Y-14137952D01*
X20134563Y-14118905D01*
X20134563Y-14042714D01*
X20144086Y-14023667D01*
X20163134Y-14014143D01*
X20201229Y-14014143D01*
X20220277Y-14023667D01*
X20229801Y-14042714D01*
X20229801Y-14061762D01*
X20134563Y-14080809D01*
X20305991Y-14137952D02*
X20325039Y-14147476D01*
X20363134Y-14147476D01*
X20382182Y-14137952D01*
X20391705Y-14118905D01*
X20391705Y-14109381D01*
X20382182Y-14090333D01*
X20363134Y-14080809D01*
X20334563Y-14080809D01*
X20315515Y-14071286D01*
X20305991Y-14052238D01*
X20305991Y-14042714D01*
X20315515Y-14023667D01*
X20334563Y-14014143D01*
X20363134Y-14014143D01*
X20382182Y-14023667D01*
X20458372Y-14223667D02*
X20467896Y-14214143D01*
X20486943Y-14185571D01*
X20496467Y-14166524D01*
X20505991Y-14137952D01*
X20515515Y-14090333D01*
X20515515Y-14052238D01*
X20505991Y-14004619D01*
X20496467Y-13976048D01*
X20486943Y-13957000D01*
X20467896Y-13928428D01*
X20458372Y-13918905D01*
X20820277Y-14223667D02*
X20810753Y-14214143D01*
X20791705Y-14185571D01*
X20782182Y-14166524D01*
X20772658Y-14137952D01*
X20763134Y-14090333D01*
X20763134Y-14052238D01*
X20772658Y-14004619D01*
X20782182Y-13976048D01*
X20791705Y-13957000D01*
X20810753Y-13928428D01*
X20820277Y-13918905D01*
X20896467Y-14014143D02*
X20896467Y-14147476D01*
X20896467Y-14033190D02*
X20905991Y-14023667D01*
X20925039Y-14014143D01*
X20953610Y-14014143D01*
X20972658Y-14023667D01*
X20982182Y-14042714D01*
X20982182Y-14147476D01*
X21105991Y-14147476D02*
X21086943Y-14137952D01*
X21077420Y-14128428D01*
X21067896Y-14109381D01*
X21067896Y-14052238D01*
X21077420Y-14033190D01*
X21086943Y-14023667D01*
X21105991Y-14014143D01*
X21134563Y-14014143D01*
X21153610Y-14023667D01*
X21163134Y-14033190D01*
X21172658Y-14052238D01*
X21172658Y-14109381D01*
X21163134Y-14128428D01*
X21153610Y-14137952D01*
X21134563Y-14147476D01*
X21105991Y-14147476D01*
X21229801Y-14014143D02*
X21305991Y-14014143D01*
X21258372Y-13947476D02*
X21258372Y-14118905D01*
X21267896Y-14137952D01*
X21286943Y-14147476D01*
X21305991Y-14147476D01*
X21525039Y-14014143D02*
X21525039Y-14214143D01*
X21525039Y-14023667D02*
X21544086Y-14014143D01*
X21582182Y-14014143D01*
X21601229Y-14023667D01*
X21610753Y-14033190D01*
X21620277Y-14052238D01*
X21620277Y-14109381D01*
X21610753Y-14128428D01*
X21601229Y-14137952D01*
X21582182Y-14147476D01*
X21544086Y-14147476D01*
X21525039Y-14137952D01*
X21734563Y-14147476D02*
X21715515Y-14137952D01*
X21705991Y-14118905D01*
X21705991Y-13947476D01*
X21896467Y-14147476D02*
X21896467Y-14042714D01*
X21886943Y-14023667D01*
X21867896Y-14014143D01*
X21829801Y-14014143D01*
X21810753Y-14023667D01*
X21896467Y-14137952D02*
X21877420Y-14147476D01*
X21829801Y-14147476D01*
X21810753Y-14137952D01*
X21801229Y-14118905D01*
X21801229Y-14099857D01*
X21810753Y-14080809D01*
X21829801Y-14071286D01*
X21877420Y-14071286D01*
X21896467Y-14061762D01*
X21963134Y-14014143D02*
X22039324Y-14014143D01*
X21991705Y-13947476D02*
X21991705Y-14118905D01*
X22001229Y-14137952D01*
X22020277Y-14147476D01*
X22039324Y-14147476D01*
X22182182Y-14137952D02*
X22163134Y-14147476D01*
X22125039Y-14147476D01*
X22105991Y-14137952D01*
X22096467Y-14118905D01*
X22096467Y-14042714D01*
X22105991Y-14023667D01*
X22125039Y-14014143D01*
X22163134Y-14014143D01*
X22182182Y-14023667D01*
X22191705Y-14042714D01*
X22191705Y-14061762D01*
X22096467Y-14080809D01*
X22363134Y-14147476D02*
X22363134Y-13947476D01*
X22363134Y-14137952D02*
X22344086Y-14147476D01*
X22305991Y-14147476D01*
X22286943Y-14137952D01*
X22277420Y-14128428D01*
X22267896Y-14109381D01*
X22267896Y-14052238D01*
X22277420Y-14033190D01*
X22286943Y-14023667D01*
X22305991Y-14014143D01*
X22344086Y-14014143D01*
X22363134Y-14023667D01*
X22439324Y-14223667D02*
X22448848Y-14214143D01*
X22467896Y-14185571D01*
X22477420Y-14166524D01*
X22486943Y-14137952D01*
X22496467Y-14090333D01*
X22496467Y-14052238D01*
X22486943Y-14004619D01*
X22477420Y-13976048D01*
X22467896Y-13957000D01*
X22448848Y-13928428D01*
X22439324Y-13918905D01*
D15*
X15474025Y-14374033D02*
X15474025Y-14267966D01*
X15367958Y-14267966D01*
X15367958Y-14374033D01*
X15474025Y-14374033D01*
D11*
X15858372Y-14411476D02*
X15744086Y-14411476D01*
X15801229Y-14411476D02*
X15801229Y-14211476D01*
X15782181Y-14240048D01*
X15763134Y-14259095D01*
X15744086Y-14268619D01*
X15944086Y-14392428D02*
X15953610Y-14401952D01*
X15944086Y-14411476D01*
X15934562Y-14401952D01*
X15944086Y-14392428D01*
X15944086Y-14411476D01*
X16134562Y-14211476D02*
X16039324Y-14211476D01*
X16029801Y-14306714D01*
X16039324Y-14297190D01*
X16058372Y-14287667D01*
X16105991Y-14287667D01*
X16125039Y-14297190D01*
X16134562Y-14306714D01*
X16144086Y-14325762D01*
X16144086Y-14373381D01*
X16134562Y-14392428D01*
X16125039Y-14401952D01*
X16105991Y-14411476D01*
X16058372Y-14411476D01*
X16039324Y-14401952D01*
X16029801Y-14392428D01*
X16267896Y-14211476D02*
X16286943Y-14211476D01*
X16305991Y-14221000D01*
X16315515Y-14230524D01*
X16325039Y-14249571D01*
X16334562Y-14287667D01*
X16334562Y-14335286D01*
X16325039Y-14373381D01*
X16315515Y-14392428D01*
X16305991Y-14401952D01*
X16286943Y-14411476D01*
X16267896Y-14411476D01*
X16248848Y-14401952D01*
X16239324Y-14392428D01*
X16229801Y-14373381D01*
X16220277Y-14335286D01*
X16220277Y-14287667D01*
X16229801Y-14249571D01*
X16239324Y-14230524D01*
X16248848Y-14221000D01*
X16267896Y-14211476D01*
X16458372Y-14211476D02*
X16477420Y-14211476D01*
X16496467Y-14221000D01*
X16505991Y-14230524D01*
X16515515Y-14249571D01*
X16525039Y-14287667D01*
X16525039Y-14335286D01*
X16515515Y-14373381D01*
X16505991Y-14392428D01*
X16496467Y-14401952D01*
X16477420Y-14411476D01*
X16458372Y-14411476D01*
X16439324Y-14401952D01*
X16429801Y-14392428D01*
X16420277Y-14373381D01*
X16410753Y-14335286D01*
X16410753Y-14287667D01*
X16420277Y-14249571D01*
X16429801Y-14230524D01*
X16439324Y-14221000D01*
X16458372Y-14211476D01*
X16610753Y-14411476D02*
X16610753Y-14278143D01*
X16610753Y-14297190D02*
X16620277Y-14287667D01*
X16639324Y-14278143D01*
X16667896Y-14278143D01*
X16686943Y-14287667D01*
X16696467Y-14306714D01*
X16696467Y-14411476D01*
X16696467Y-14306714D02*
X16705991Y-14287667D01*
X16725039Y-14278143D01*
X16753610Y-14278143D01*
X16772658Y-14287667D01*
X16782182Y-14306714D01*
X16782182Y-14411476D01*
X16877420Y-14411476D02*
X16877420Y-14278143D01*
X16877420Y-14297190D02*
X16886943Y-14287667D01*
X16905991Y-14278143D01*
X16934563Y-14278143D01*
X16953610Y-14287667D01*
X16963134Y-14306714D01*
X16963134Y-14411476D01*
X16963134Y-14306714D02*
X16972658Y-14287667D01*
X16991705Y-14278143D01*
X17020277Y-14278143D01*
X17039324Y-14287667D01*
X17048848Y-14306714D01*
X17048848Y-14411476D01*
X17439324Y-14201952D02*
X17267896Y-14459095D01*
X17696467Y-14211476D02*
X17715515Y-14211476D01*
X17734563Y-14221000D01*
X17744086Y-14230524D01*
X17753610Y-14249571D01*
X17763134Y-14287667D01*
X17763134Y-14335286D01*
X17753610Y-14373381D01*
X17744086Y-14392428D01*
X17734563Y-14401952D01*
X17715515Y-14411476D01*
X17696467Y-14411476D01*
X17677420Y-14401952D01*
X17667896Y-14392428D01*
X17658372Y-14373381D01*
X17648848Y-14335286D01*
X17648848Y-14287667D01*
X17658372Y-14249571D01*
X17667896Y-14230524D01*
X17677420Y-14221000D01*
X17696467Y-14211476D01*
X17848848Y-14392428D02*
X17858372Y-14401952D01*
X17848848Y-14411476D01*
X17839324Y-14401952D01*
X17848848Y-14392428D01*
X17848848Y-14411476D01*
X17982182Y-14211476D02*
X18001229Y-14211476D01*
X18020277Y-14221000D01*
X18029801Y-14230524D01*
X18039324Y-14249571D01*
X18048848Y-14287667D01*
X18048848Y-14335286D01*
X18039324Y-14373381D01*
X18029801Y-14392428D01*
X18020277Y-14401952D01*
X18001229Y-14411476D01*
X17982182Y-14411476D01*
X17963134Y-14401952D01*
X17953610Y-14392428D01*
X17944086Y-14373381D01*
X17934563Y-14335286D01*
X17934563Y-14287667D01*
X17944086Y-14249571D01*
X17953610Y-14230524D01*
X17963134Y-14221000D01*
X17982182Y-14211476D01*
X18229801Y-14211476D02*
X18134563Y-14211476D01*
X18125039Y-14306714D01*
X18134563Y-14297190D01*
X18153610Y-14287667D01*
X18201229Y-14287667D01*
X18220277Y-14297190D01*
X18229801Y-14306714D01*
X18239324Y-14325762D01*
X18239324Y-14373381D01*
X18229801Y-14392428D01*
X18220277Y-14401952D01*
X18201229Y-14411476D01*
X18153610Y-14411476D01*
X18134563Y-14401952D01*
X18125039Y-14392428D01*
X18334563Y-14411476D02*
X18372658Y-14411476D01*
X18391705Y-14401952D01*
X18401229Y-14392428D01*
X18420277Y-14363857D01*
X18429801Y-14325762D01*
X18429801Y-14249571D01*
X18420277Y-14230524D01*
X18410753Y-14221000D01*
X18391705Y-14211476D01*
X18353610Y-14211476D01*
X18334563Y-14221000D01*
X18325039Y-14230524D01*
X18315515Y-14249571D01*
X18315515Y-14297190D01*
X18325039Y-14316238D01*
X18334563Y-14325762D01*
X18353610Y-14335286D01*
X18391705Y-14335286D01*
X18410753Y-14325762D01*
X18420277Y-14316238D01*
X18429801Y-14297190D01*
X18620277Y-14411476D02*
X18505991Y-14411476D01*
X18563134Y-14411476D02*
X18563134Y-14211476D01*
X18544086Y-14240048D01*
X18525039Y-14259095D01*
X18505991Y-14268619D01*
X18696467Y-14211476D02*
X18696467Y-14249571D01*
X18772658Y-14211476D02*
X18772658Y-14249571D01*
X19067896Y-14487667D02*
X19058372Y-14478143D01*
X19039324Y-14449571D01*
X19029801Y-14430524D01*
X19020277Y-14401952D01*
X19010753Y-14354333D01*
X19010753Y-14316238D01*
X19020277Y-14268619D01*
X19029801Y-14240048D01*
X19039324Y-14221000D01*
X19058372Y-14192428D01*
X19067896Y-14182905D01*
X19229801Y-14278143D02*
X19229801Y-14411476D01*
X19182182Y-14201952D02*
X19134563Y-14344809D01*
X19258372Y-14344809D01*
X19486943Y-14411476D02*
X19486943Y-14211476D01*
X19572658Y-14411476D02*
X19572658Y-14306714D01*
X19563134Y-14287667D01*
X19544086Y-14278143D01*
X19515515Y-14278143D01*
X19496467Y-14287667D01*
X19486943Y-14297190D01*
X19696467Y-14411476D02*
X19677420Y-14401952D01*
X19667896Y-14392428D01*
X19658372Y-14373381D01*
X19658372Y-14316238D01*
X19667896Y-14297190D01*
X19677420Y-14287667D01*
X19696467Y-14278143D01*
X19725039Y-14278143D01*
X19744086Y-14287667D01*
X19753610Y-14297190D01*
X19763134Y-14316238D01*
X19763134Y-14373381D01*
X19753610Y-14392428D01*
X19744086Y-14401952D01*
X19725039Y-14411476D01*
X19696467Y-14411476D01*
X19877420Y-14411476D02*
X19858372Y-14401952D01*
X19848848Y-14382905D01*
X19848848Y-14211476D01*
X20029801Y-14401952D02*
X20010753Y-14411476D01*
X19972658Y-14411476D01*
X19953610Y-14401952D01*
X19944086Y-14382905D01*
X19944086Y-14306714D01*
X19953610Y-14287667D01*
X19972658Y-14278143D01*
X20010753Y-14278143D01*
X20029801Y-14287667D01*
X20039324Y-14306714D01*
X20039324Y-14325762D01*
X19944086Y-14344809D01*
X20115515Y-14401952D02*
X20134563Y-14411476D01*
X20172658Y-14411476D01*
X20191705Y-14401952D01*
X20201229Y-14382905D01*
X20201229Y-14373381D01*
X20191705Y-14354333D01*
X20172658Y-14344809D01*
X20144086Y-14344809D01*
X20125039Y-14335286D01*
X20115515Y-14316238D01*
X20115515Y-14306714D01*
X20125039Y-14287667D01*
X20144086Y-14278143D01*
X20172658Y-14278143D01*
X20191705Y-14287667D01*
X20267896Y-14487667D02*
X20277420Y-14478143D01*
X20296467Y-14449571D01*
X20305991Y-14430524D01*
X20315515Y-14401952D01*
X20325039Y-14354333D01*
X20325039Y-14316238D01*
X20315515Y-14268619D01*
X20305991Y-14240048D01*
X20296467Y-14221000D01*
X20277420Y-14192428D01*
X20267896Y-14182905D01*
X20629801Y-14487667D02*
X20620277Y-14478143D01*
X20601229Y-14449571D01*
X20591705Y-14430524D01*
X20582182Y-14401952D01*
X20572658Y-14354333D01*
X20572658Y-14316238D01*
X20582182Y-14268619D01*
X20591705Y-14240048D01*
X20601229Y-14221000D01*
X20620277Y-14192428D01*
X20629801Y-14182905D01*
X20705991Y-14278143D02*
X20705991Y-14411476D01*
X20705991Y-14297190D02*
X20715515Y-14287667D01*
X20734563Y-14278143D01*
X20763134Y-14278143D01*
X20782182Y-14287667D01*
X20791705Y-14306714D01*
X20791705Y-14411476D01*
X20915515Y-14411476D02*
X20896467Y-14401952D01*
X20886943Y-14392428D01*
X20877420Y-14373381D01*
X20877420Y-14316238D01*
X20886943Y-14297190D01*
X20896467Y-14287667D01*
X20915515Y-14278143D01*
X20944086Y-14278143D01*
X20963134Y-14287667D01*
X20972658Y-14297190D01*
X20982182Y-14316238D01*
X20982182Y-14373381D01*
X20972658Y-14392428D01*
X20963134Y-14401952D01*
X20944086Y-14411476D01*
X20915515Y-14411476D01*
X21039324Y-14278143D02*
X21115515Y-14278143D01*
X21067896Y-14211476D02*
X21067896Y-14382905D01*
X21077420Y-14401952D01*
X21096467Y-14411476D01*
X21115515Y-14411476D01*
X21334563Y-14278143D02*
X21334563Y-14478143D01*
X21334563Y-14287667D02*
X21353610Y-14278143D01*
X21391705Y-14278143D01*
X21410753Y-14287667D01*
X21420277Y-14297190D01*
X21429801Y-14316238D01*
X21429801Y-14373381D01*
X21420277Y-14392428D01*
X21410753Y-14401952D01*
X21391705Y-14411476D01*
X21353610Y-14411476D01*
X21334563Y-14401952D01*
X21544086Y-14411476D02*
X21525039Y-14401952D01*
X21515515Y-14382905D01*
X21515515Y-14211476D01*
X21705991Y-14411476D02*
X21705991Y-14306714D01*
X21696467Y-14287667D01*
X21677420Y-14278143D01*
X21639324Y-14278143D01*
X21620277Y-14287667D01*
X21705991Y-14401952D02*
X21686943Y-14411476D01*
X21639324Y-14411476D01*
X21620277Y-14401952D01*
X21610753Y-14382905D01*
X21610753Y-14363857D01*
X21620277Y-14344809D01*
X21639324Y-14335286D01*
X21686943Y-14335286D01*
X21705991Y-14325762D01*
X21772658Y-14278143D02*
X21848848Y-14278143D01*
X21801229Y-14211476D02*
X21801229Y-14382905D01*
X21810753Y-14401952D01*
X21829801Y-14411476D01*
X21848848Y-14411476D01*
X21991705Y-14401952D02*
X21972658Y-14411476D01*
X21934563Y-14411476D01*
X21915515Y-14401952D01*
X21905991Y-14382905D01*
X21905991Y-14306714D01*
X21915515Y-14287667D01*
X21934563Y-14278143D01*
X21972658Y-14278143D01*
X21991705Y-14287667D01*
X22001229Y-14306714D01*
X22001229Y-14325762D01*
X21905991Y-14344809D01*
X22172658Y-14411476D02*
X22172658Y-14211476D01*
X22172658Y-14401952D02*
X22153610Y-14411476D01*
X22115515Y-14411476D01*
X22096467Y-14401952D01*
X22086943Y-14392428D01*
X22077420Y-14373381D01*
X22077420Y-14316238D01*
X22086943Y-14297190D01*
X22096467Y-14287667D01*
X22115515Y-14278143D01*
X22153610Y-14278143D01*
X22172658Y-14287667D01*
X22248848Y-14487667D02*
X22258372Y-14478143D01*
X22277420Y-14449571D01*
X22286943Y-14430524D01*
X22296467Y-14401952D01*
X22305991Y-14354333D01*
X22305991Y-14316238D01*
X22296467Y-14268619D01*
X22286943Y-14240048D01*
X22277420Y-14221000D01*
X22258372Y-14192428D01*
X22248848Y-14182905D01*
D16*
X15408491Y-14678500D02*
X15495991Y-14591000D01*
X15408491Y-14503500D01*
X15320991Y-14591000D01*
X15408491Y-14678500D01*
D11*
X15858372Y-14681476D02*
X15744086Y-14681476D01*
X15801229Y-14681476D02*
X15801229Y-14481476D01*
X15782181Y-14510048D01*
X15763134Y-14529095D01*
X15744086Y-14538619D01*
X15944086Y-14662428D02*
X15953610Y-14671952D01*
X15944086Y-14681476D01*
X15934562Y-14671952D01*
X15944086Y-14662428D01*
X15944086Y-14681476D01*
X16020277Y-14481476D02*
X16153610Y-14481476D01*
X16067896Y-14681476D01*
X16325039Y-14481476D02*
X16229801Y-14481476D01*
X16220277Y-14576714D01*
X16229801Y-14567190D01*
X16248848Y-14557667D01*
X16296467Y-14557667D01*
X16315515Y-14567190D01*
X16325039Y-14576714D01*
X16334562Y-14595762D01*
X16334562Y-14643381D01*
X16325039Y-14662428D01*
X16315515Y-14671952D01*
X16296467Y-14681476D01*
X16248848Y-14681476D01*
X16229801Y-14671952D01*
X16220277Y-14662428D01*
X16458372Y-14481476D02*
X16477420Y-14481476D01*
X16496467Y-14491000D01*
X16505991Y-14500524D01*
X16515515Y-14519571D01*
X16525039Y-14557667D01*
X16525039Y-14605286D01*
X16515515Y-14643381D01*
X16505991Y-14662428D01*
X16496467Y-14671952D01*
X16477420Y-14681476D01*
X16458372Y-14681476D01*
X16439324Y-14671952D01*
X16429801Y-14662428D01*
X16420277Y-14643381D01*
X16410753Y-14605286D01*
X16410753Y-14557667D01*
X16420277Y-14519571D01*
X16429801Y-14500524D01*
X16439324Y-14491000D01*
X16458372Y-14481476D01*
X16610753Y-14681476D02*
X16610753Y-14548143D01*
X16610753Y-14567190D02*
X16620277Y-14557667D01*
X16639324Y-14548143D01*
X16667896Y-14548143D01*
X16686943Y-14557667D01*
X16696467Y-14576714D01*
X16696467Y-14681476D01*
X16696467Y-14576714D02*
X16705991Y-14557667D01*
X16725039Y-14548143D01*
X16753610Y-14548143D01*
X16772658Y-14557667D01*
X16782182Y-14576714D01*
X16782182Y-14681476D01*
X16877420Y-14681476D02*
X16877420Y-14548143D01*
X16877420Y-14567190D02*
X16886943Y-14557667D01*
X16905991Y-14548143D01*
X16934563Y-14548143D01*
X16953610Y-14557667D01*
X16963134Y-14576714D01*
X16963134Y-14681476D01*
X16963134Y-14576714D02*
X16972658Y-14557667D01*
X16991705Y-14548143D01*
X17020277Y-14548143D01*
X17039324Y-14557667D01*
X17048848Y-14576714D01*
X17048848Y-14681476D01*
X17439324Y-14471952D02*
X17267896Y-14729095D01*
X17696467Y-14481476D02*
X17715515Y-14481476D01*
X17734563Y-14491000D01*
X17744086Y-14500524D01*
X17753610Y-14519571D01*
X17763134Y-14557667D01*
X17763134Y-14605286D01*
X17753610Y-14643381D01*
X17744086Y-14662428D01*
X17734563Y-14671952D01*
X17715515Y-14681476D01*
X17696467Y-14681476D01*
X17677420Y-14671952D01*
X17667896Y-14662428D01*
X17658372Y-14643381D01*
X17648848Y-14605286D01*
X17648848Y-14557667D01*
X17658372Y-14519571D01*
X17667896Y-14500524D01*
X17677420Y-14491000D01*
X17696467Y-14481476D01*
X17848848Y-14662428D02*
X17858372Y-14671952D01*
X17848848Y-14681476D01*
X17839324Y-14671952D01*
X17848848Y-14662428D01*
X17848848Y-14681476D01*
X17982182Y-14481476D02*
X18001229Y-14481476D01*
X18020277Y-14491000D01*
X18029801Y-14500524D01*
X18039324Y-14519571D01*
X18048848Y-14557667D01*
X18048848Y-14605286D01*
X18039324Y-14643381D01*
X18029801Y-14662428D01*
X18020277Y-14671952D01*
X18001229Y-14681476D01*
X17982182Y-14681476D01*
X17963134Y-14671952D01*
X17953610Y-14662428D01*
X17944086Y-14643381D01*
X17934563Y-14605286D01*
X17934563Y-14557667D01*
X17944086Y-14519571D01*
X17953610Y-14500524D01*
X17963134Y-14491000D01*
X17982182Y-14481476D01*
X18220277Y-14481476D02*
X18182182Y-14481476D01*
X18163134Y-14491000D01*
X18153610Y-14500524D01*
X18134563Y-14529095D01*
X18125039Y-14567190D01*
X18125039Y-14643381D01*
X18134563Y-14662428D01*
X18144086Y-14671952D01*
X18163134Y-14681476D01*
X18201229Y-14681476D01*
X18220277Y-14671952D01*
X18229801Y-14662428D01*
X18239324Y-14643381D01*
X18239324Y-14595762D01*
X18229801Y-14576714D01*
X18220277Y-14567190D01*
X18201229Y-14557667D01*
X18163134Y-14557667D01*
X18144086Y-14567190D01*
X18134563Y-14576714D01*
X18125039Y-14595762D01*
X18353610Y-14567190D02*
X18334563Y-14557667D01*
X18325039Y-14548143D01*
X18315515Y-14529095D01*
X18315515Y-14519571D01*
X18325039Y-14500524D01*
X18334563Y-14491000D01*
X18353610Y-14481476D01*
X18391705Y-14481476D01*
X18410753Y-14491000D01*
X18420277Y-14500524D01*
X18429801Y-14519571D01*
X18429801Y-14529095D01*
X18420277Y-14548143D01*
X18410753Y-14557667D01*
X18391705Y-14567190D01*
X18353610Y-14567190D01*
X18334563Y-14576714D01*
X18325039Y-14586238D01*
X18315515Y-14605286D01*
X18315515Y-14643381D01*
X18325039Y-14662428D01*
X18334563Y-14671952D01*
X18353610Y-14681476D01*
X18391705Y-14681476D01*
X18410753Y-14671952D01*
X18420277Y-14662428D01*
X18429801Y-14643381D01*
X18429801Y-14605286D01*
X18420277Y-14586238D01*
X18410753Y-14576714D01*
X18391705Y-14567190D01*
X18525039Y-14681476D02*
X18563134Y-14681476D01*
X18582182Y-14671952D01*
X18591705Y-14662428D01*
X18610753Y-14633857D01*
X18620277Y-14595762D01*
X18620277Y-14519571D01*
X18610753Y-14500524D01*
X18601229Y-14491000D01*
X18582182Y-14481476D01*
X18544086Y-14481476D01*
X18525039Y-14491000D01*
X18515515Y-14500524D01*
X18505991Y-14519571D01*
X18505991Y-14567190D01*
X18515515Y-14586238D01*
X18525039Y-14595762D01*
X18544086Y-14605286D01*
X18582182Y-14605286D01*
X18601229Y-14595762D01*
X18610753Y-14586238D01*
X18620277Y-14567190D01*
X18696467Y-14481476D02*
X18696467Y-14519571D01*
X18772658Y-14481476D02*
X18772658Y-14519571D01*
X19067896Y-14757667D02*
X19058372Y-14748143D01*
X19039324Y-14719571D01*
X19029801Y-14700524D01*
X19020277Y-14671952D01*
X19010753Y-14624333D01*
X19010753Y-14586238D01*
X19020277Y-14538619D01*
X19029801Y-14510048D01*
X19039324Y-14491000D01*
X19058372Y-14462428D01*
X19067896Y-14452905D01*
X19229801Y-14548143D02*
X19229801Y-14681476D01*
X19182182Y-14471952D02*
X19134563Y-14614809D01*
X19258372Y-14614809D01*
X19372658Y-14481476D02*
X19391705Y-14481476D01*
X19410753Y-14491000D01*
X19420277Y-14500524D01*
X19429801Y-14519571D01*
X19439324Y-14557667D01*
X19439324Y-14605286D01*
X19429801Y-14643381D01*
X19420277Y-14662428D01*
X19410753Y-14671952D01*
X19391705Y-14681476D01*
X19372658Y-14681476D01*
X19353610Y-14671952D01*
X19344086Y-14662428D01*
X19334563Y-14643381D01*
X19325039Y-14605286D01*
X19325039Y-14557667D01*
X19334563Y-14519571D01*
X19344086Y-14500524D01*
X19353610Y-14491000D01*
X19372658Y-14481476D01*
X19677420Y-14681476D02*
X19677420Y-14481476D01*
X19763134Y-14681476D02*
X19763134Y-14576714D01*
X19753610Y-14557667D01*
X19734563Y-14548143D01*
X19705991Y-14548143D01*
X19686943Y-14557667D01*
X19677420Y-14567190D01*
X19886943Y-14681476D02*
X19867896Y-14671952D01*
X19858372Y-14662428D01*
X19848848Y-14643381D01*
X19848848Y-14586238D01*
X19858372Y-14567190D01*
X19867896Y-14557667D01*
X19886943Y-14548143D01*
X19915515Y-14548143D01*
X19934563Y-14557667D01*
X19944086Y-14567190D01*
X19953610Y-14586238D01*
X19953610Y-14643381D01*
X19944086Y-14662428D01*
X19934563Y-14671952D01*
X19915515Y-14681476D01*
X19886943Y-14681476D01*
X20067896Y-14681476D02*
X20048848Y-14671952D01*
X20039324Y-14652905D01*
X20039324Y-14481476D01*
X20220277Y-14671952D02*
X20201229Y-14681476D01*
X20163134Y-14681476D01*
X20144086Y-14671952D01*
X20134563Y-14652905D01*
X20134563Y-14576714D01*
X20144086Y-14557667D01*
X20163134Y-14548143D01*
X20201229Y-14548143D01*
X20220277Y-14557667D01*
X20229801Y-14576714D01*
X20229801Y-14595762D01*
X20134563Y-14614809D01*
X20305991Y-14671952D02*
X20325039Y-14681476D01*
X20363134Y-14681476D01*
X20382182Y-14671952D01*
X20391705Y-14652905D01*
X20391705Y-14643381D01*
X20382182Y-14624333D01*
X20363134Y-14614809D01*
X20334563Y-14614809D01*
X20315515Y-14605286D01*
X20305991Y-14586238D01*
X20305991Y-14576714D01*
X20315515Y-14557667D01*
X20334563Y-14548143D01*
X20363134Y-14548143D01*
X20382182Y-14557667D01*
X20458372Y-14757667D02*
X20467896Y-14748143D01*
X20486943Y-14719571D01*
X20496467Y-14700524D01*
X20505991Y-14671952D01*
X20515515Y-14624333D01*
X20515515Y-14586238D01*
X20505991Y-14538619D01*
X20496467Y-14510048D01*
X20486943Y-14491000D01*
X20467896Y-14462428D01*
X20458372Y-14452905D01*
X20820277Y-14757667D02*
X20810753Y-14748143D01*
X20791705Y-14719571D01*
X20782182Y-14700524D01*
X20772658Y-14671952D01*
X20763134Y-14624333D01*
X20763134Y-14586238D01*
X20772658Y-14538619D01*
X20782182Y-14510048D01*
X20791705Y-14491000D01*
X20810753Y-14462428D01*
X20820277Y-14452905D01*
X20896467Y-14548143D02*
X20896467Y-14681476D01*
X20896467Y-14567190D02*
X20905991Y-14557667D01*
X20925039Y-14548143D01*
X20953610Y-14548143D01*
X20972658Y-14557667D01*
X20982182Y-14576714D01*
X20982182Y-14681476D01*
X21105991Y-14681476D02*
X21086943Y-14671952D01*
X21077420Y-14662428D01*
X21067896Y-14643381D01*
X21067896Y-14586238D01*
X21077420Y-14567190D01*
X21086943Y-14557667D01*
X21105991Y-14548143D01*
X21134563Y-14548143D01*
X21153610Y-14557667D01*
X21163134Y-14567190D01*
X21172658Y-14586238D01*
X21172658Y-14643381D01*
X21163134Y-14662428D01*
X21153610Y-14671952D01*
X21134563Y-14681476D01*
X21105991Y-14681476D01*
X21229801Y-14548143D02*
X21305991Y-14548143D01*
X21258372Y-14481476D02*
X21258372Y-14652905D01*
X21267896Y-14671952D01*
X21286943Y-14681476D01*
X21305991Y-14681476D01*
X21525039Y-14548143D02*
X21525039Y-14748143D01*
X21525039Y-14557667D02*
X21544086Y-14548143D01*
X21582182Y-14548143D01*
X21601229Y-14557667D01*
X21610753Y-14567190D01*
X21620277Y-14586238D01*
X21620277Y-14643381D01*
X21610753Y-14662428D01*
X21601229Y-14671952D01*
X21582182Y-14681476D01*
X21544086Y-14681476D01*
X21525039Y-14671952D01*
X21734563Y-14681476D02*
X21715515Y-14671952D01*
X21705991Y-14652905D01*
X21705991Y-14481476D01*
X21896467Y-14681476D02*
X21896467Y-14576714D01*
X21886943Y-14557667D01*
X21867896Y-14548143D01*
X21829801Y-14548143D01*
X21810753Y-14557667D01*
X21896467Y-14671952D02*
X21877420Y-14681476D01*
X21829801Y-14681476D01*
X21810753Y-14671952D01*
X21801229Y-14652905D01*
X21801229Y-14633857D01*
X21810753Y-14614809D01*
X21829801Y-14605286D01*
X21877420Y-14605286D01*
X21896467Y-14595762D01*
X21963134Y-14548143D02*
X22039324Y-14548143D01*
X21991705Y-14481476D02*
X21991705Y-14652905D01*
X22001229Y-14671952D01*
X22020277Y-14681476D01*
X22039324Y-14681476D01*
X22182182Y-14671952D02*
X22163134Y-14681476D01*
X22125039Y-14681476D01*
X22105991Y-14671952D01*
X22096467Y-14652905D01*
X22096467Y-14576714D01*
X22105991Y-14557667D01*
X22125039Y-14548143D01*
X22163134Y-14548143D01*
X22182182Y-14557667D01*
X22191705Y-14576714D01*
X22191705Y-14595762D01*
X22096467Y-14614809D01*
X22363134Y-14681476D02*
X22363134Y-14481476D01*
X22363134Y-14671952D02*
X22344086Y-14681476D01*
X22305991Y-14681476D01*
X22286943Y-14671952D01*
X22277420Y-14662428D01*
X22267896Y-14643381D01*
X22267896Y-14586238D01*
X22277420Y-14567190D01*
X22286943Y-14557667D01*
X22305991Y-14548143D01*
X22344086Y-14548143D01*
X22363134Y-14557667D01*
X22439324Y-14757667D02*
X22448848Y-14748143D01*
X22467896Y-14719571D01*
X22477420Y-14700524D01*
X22486943Y-14671952D01*
X22496467Y-14624333D01*
X22496467Y-14586238D01*
X22486943Y-14538619D01*
X22477420Y-14510048D01*
X22467896Y-14491000D01*
X22448848Y-14462428D01*
X22439324Y-14452905D01*
X15295991Y-14786000D02*
X15495991Y-14986000D01*
X15495991Y-14786000D02*
X15295991Y-14986000D01*
X15495991Y-14886000D02*
G75*
G03*
X15495991Y-14886000I-100000J0D01*
G01*
X15744086Y-14795524D02*
X15753610Y-14786000D01*
X15772658Y-14776476D01*
X15820277Y-14776476D01*
X15839324Y-14786000D01*
X15848848Y-14795524D01*
X15858372Y-14814571D01*
X15858372Y-14833619D01*
X15848848Y-14862190D01*
X15734562Y-14976476D01*
X15858372Y-14976476D01*
X15944086Y-14957428D02*
X15953610Y-14966952D01*
X15944086Y-14976476D01*
X15934562Y-14966952D01*
X15944086Y-14957428D01*
X15944086Y-14976476D01*
X16144086Y-14976476D02*
X16029801Y-14976476D01*
X16086943Y-14976476D02*
X16086943Y-14776476D01*
X16067896Y-14805048D01*
X16048848Y-14824095D01*
X16029801Y-14833619D01*
X16267896Y-14776476D02*
X16286943Y-14776476D01*
X16305991Y-14786000D01*
X16315515Y-14795524D01*
X16325039Y-14814571D01*
X16334562Y-14852667D01*
X16334562Y-14900286D01*
X16325039Y-14938381D01*
X16315515Y-14957428D01*
X16305991Y-14966952D01*
X16286943Y-14976476D01*
X16267896Y-14976476D01*
X16248848Y-14966952D01*
X16239324Y-14957428D01*
X16229801Y-14938381D01*
X16220277Y-14900286D01*
X16220277Y-14852667D01*
X16229801Y-14814571D01*
X16239324Y-14795524D01*
X16248848Y-14786000D01*
X16267896Y-14776476D01*
X16458372Y-14776476D02*
X16477420Y-14776476D01*
X16496467Y-14786000D01*
X16505991Y-14795524D01*
X16515515Y-14814571D01*
X16525039Y-14852667D01*
X16525039Y-14900286D01*
X16515515Y-14938381D01*
X16505991Y-14957428D01*
X16496467Y-14966952D01*
X16477420Y-14976476D01*
X16458372Y-14976476D01*
X16439324Y-14966952D01*
X16429801Y-14957428D01*
X16420277Y-14938381D01*
X16410753Y-14900286D01*
X16410753Y-14852667D01*
X16420277Y-14814571D01*
X16429801Y-14795524D01*
X16439324Y-14786000D01*
X16458372Y-14776476D01*
X16610753Y-14976476D02*
X16610753Y-14843143D01*
X16610753Y-14862190D02*
X16620277Y-14852667D01*
X16639324Y-14843143D01*
X16667896Y-14843143D01*
X16686943Y-14852667D01*
X16696467Y-14871714D01*
X16696467Y-14976476D01*
X16696467Y-14871714D02*
X16705991Y-14852667D01*
X16725039Y-14843143D01*
X16753610Y-14843143D01*
X16772658Y-14852667D01*
X16782182Y-14871714D01*
X16782182Y-14976476D01*
X16877420Y-14976476D02*
X16877420Y-14843143D01*
X16877420Y-14862190D02*
X16886943Y-14852667D01*
X16905991Y-14843143D01*
X16934563Y-14843143D01*
X16953610Y-14852667D01*
X16963134Y-14871714D01*
X16963134Y-14976476D01*
X16963134Y-14871714D02*
X16972658Y-14852667D01*
X16991705Y-14843143D01*
X17020277Y-14843143D01*
X17039324Y-14852667D01*
X17048848Y-14871714D01*
X17048848Y-14976476D01*
X17439324Y-14766952D02*
X17267896Y-15024095D01*
X17696467Y-14776476D02*
X17715515Y-14776476D01*
X17734563Y-14786000D01*
X17744086Y-14795524D01*
X17753610Y-14814571D01*
X17763134Y-14852667D01*
X17763134Y-14900286D01*
X17753610Y-14938381D01*
X17744086Y-14957428D01*
X17734563Y-14966952D01*
X17715515Y-14976476D01*
X17696467Y-14976476D01*
X17677420Y-14966952D01*
X17667896Y-14957428D01*
X17658372Y-14938381D01*
X17648848Y-14900286D01*
X17648848Y-14852667D01*
X17658372Y-14814571D01*
X17667896Y-14795524D01*
X17677420Y-14786000D01*
X17696467Y-14776476D01*
X17848848Y-14957428D02*
X17858372Y-14966952D01*
X17848848Y-14976476D01*
X17839324Y-14966952D01*
X17848848Y-14957428D01*
X17848848Y-14976476D01*
X17982182Y-14776476D02*
X18001229Y-14776476D01*
X18020277Y-14786000D01*
X18029801Y-14795524D01*
X18039324Y-14814571D01*
X18048848Y-14852667D01*
X18048848Y-14900286D01*
X18039324Y-14938381D01*
X18029801Y-14957428D01*
X18020277Y-14966952D01*
X18001229Y-14976476D01*
X17982182Y-14976476D01*
X17963134Y-14966952D01*
X17953610Y-14957428D01*
X17944086Y-14938381D01*
X17934563Y-14900286D01*
X17934563Y-14852667D01*
X17944086Y-14814571D01*
X17953610Y-14795524D01*
X17963134Y-14786000D01*
X17982182Y-14776476D01*
X18163134Y-14862190D02*
X18144086Y-14852667D01*
X18134563Y-14843143D01*
X18125039Y-14824095D01*
X18125039Y-14814571D01*
X18134563Y-14795524D01*
X18144086Y-14786000D01*
X18163134Y-14776476D01*
X18201229Y-14776476D01*
X18220277Y-14786000D01*
X18229801Y-14795524D01*
X18239324Y-14814571D01*
X18239324Y-14824095D01*
X18229801Y-14843143D01*
X18220277Y-14852667D01*
X18201229Y-14862190D01*
X18163134Y-14862190D01*
X18144086Y-14871714D01*
X18134563Y-14881238D01*
X18125039Y-14900286D01*
X18125039Y-14938381D01*
X18134563Y-14957428D01*
X18144086Y-14966952D01*
X18163134Y-14976476D01*
X18201229Y-14976476D01*
X18220277Y-14966952D01*
X18229801Y-14957428D01*
X18239324Y-14938381D01*
X18239324Y-14900286D01*
X18229801Y-14881238D01*
X18220277Y-14871714D01*
X18201229Y-14862190D01*
X18315515Y-14795524D02*
X18325039Y-14786000D01*
X18344086Y-14776476D01*
X18391705Y-14776476D01*
X18410753Y-14786000D01*
X18420277Y-14795524D01*
X18429801Y-14814571D01*
X18429801Y-14833619D01*
X18420277Y-14862190D01*
X18305991Y-14976476D01*
X18429801Y-14976476D01*
X18496467Y-14776476D02*
X18629801Y-14776476D01*
X18544086Y-14976476D01*
X18696467Y-14776476D02*
X18696467Y-14814571D01*
X18772658Y-14776476D02*
X18772658Y-14814571D01*
X19067896Y-15052667D02*
X19058372Y-15043143D01*
X19039324Y-15014571D01*
X19029801Y-14995524D01*
X19020277Y-14966952D01*
X19010753Y-14919333D01*
X19010753Y-14881238D01*
X19020277Y-14833619D01*
X19029801Y-14805048D01*
X19039324Y-14786000D01*
X19058372Y-14757428D01*
X19067896Y-14747905D01*
X19229801Y-14843143D02*
X19229801Y-14976476D01*
X19182182Y-14766952D02*
X19134563Y-14909809D01*
X19258372Y-14909809D01*
X19486943Y-14976476D02*
X19486943Y-14776476D01*
X19572658Y-14976476D02*
X19572658Y-14871714D01*
X19563134Y-14852667D01*
X19544086Y-14843143D01*
X19515515Y-14843143D01*
X19496467Y-14852667D01*
X19486943Y-14862190D01*
X19696467Y-14976476D02*
X19677420Y-14966952D01*
X19667896Y-14957428D01*
X19658372Y-14938381D01*
X19658372Y-14881238D01*
X19667896Y-14862190D01*
X19677420Y-14852667D01*
X19696467Y-14843143D01*
X19725039Y-14843143D01*
X19744086Y-14852667D01*
X19753610Y-14862190D01*
X19763134Y-14881238D01*
X19763134Y-14938381D01*
X19753610Y-14957428D01*
X19744086Y-14966952D01*
X19725039Y-14976476D01*
X19696467Y-14976476D01*
X19877420Y-14976476D02*
X19858372Y-14966952D01*
X19848848Y-14947905D01*
X19848848Y-14776476D01*
X20029801Y-14966952D02*
X20010753Y-14976476D01*
X19972658Y-14976476D01*
X19953610Y-14966952D01*
X19944086Y-14947905D01*
X19944086Y-14871714D01*
X19953610Y-14852667D01*
X19972658Y-14843143D01*
X20010753Y-14843143D01*
X20029801Y-14852667D01*
X20039324Y-14871714D01*
X20039324Y-14890762D01*
X19944086Y-14909809D01*
X20115515Y-14966952D02*
X20134563Y-14976476D01*
X20172658Y-14976476D01*
X20191705Y-14966952D01*
X20201229Y-14947905D01*
X20201229Y-14938381D01*
X20191705Y-14919333D01*
X20172658Y-14909809D01*
X20144086Y-14909809D01*
X20125039Y-14900286D01*
X20115515Y-14881238D01*
X20115515Y-14871714D01*
X20125039Y-14852667D01*
X20144086Y-14843143D01*
X20172658Y-14843143D01*
X20191705Y-14852667D01*
X20267896Y-15052667D02*
X20277420Y-15043143D01*
X20296467Y-15014571D01*
X20305991Y-14995524D01*
X20315515Y-14966952D01*
X20325039Y-14919333D01*
X20325039Y-14881238D01*
X20315515Y-14833619D01*
X20305991Y-14805048D01*
X20296467Y-14786000D01*
X20277420Y-14757428D01*
X20267896Y-14747905D01*
X20629801Y-15052667D02*
X20620277Y-15043143D01*
X20601229Y-15014571D01*
X20591705Y-14995524D01*
X20582182Y-14966952D01*
X20572658Y-14919333D01*
X20572658Y-14881238D01*
X20582182Y-14833619D01*
X20591705Y-14805048D01*
X20601229Y-14786000D01*
X20620277Y-14757428D01*
X20629801Y-14747905D01*
X20705991Y-14843143D02*
X20705991Y-14976476D01*
X20705991Y-14862190D02*
X20715515Y-14852667D01*
X20734563Y-14843143D01*
X20763134Y-14843143D01*
X20782182Y-14852667D01*
X20791705Y-14871714D01*
X20791705Y-14976476D01*
X20915515Y-14976476D02*
X20896467Y-14966952D01*
X20886943Y-14957428D01*
X20877420Y-14938381D01*
X20877420Y-14881238D01*
X20886943Y-14862190D01*
X20896467Y-14852667D01*
X20915515Y-14843143D01*
X20944086Y-14843143D01*
X20963134Y-14852667D01*
X20972658Y-14862190D01*
X20982182Y-14881238D01*
X20982182Y-14938381D01*
X20972658Y-14957428D01*
X20963134Y-14966952D01*
X20944086Y-14976476D01*
X20915515Y-14976476D01*
X21039324Y-14843143D02*
X21115515Y-14843143D01*
X21067896Y-14776476D02*
X21067896Y-14947905D01*
X21077420Y-14966952D01*
X21096467Y-14976476D01*
X21115515Y-14976476D01*
X21334563Y-14843143D02*
X21334563Y-15043143D01*
X21334563Y-14852667D02*
X21353610Y-14843143D01*
X21391705Y-14843143D01*
X21410753Y-14852667D01*
X21420277Y-14862190D01*
X21429801Y-14881238D01*
X21429801Y-14938381D01*
X21420277Y-14957428D01*
X21410753Y-14966952D01*
X21391705Y-14976476D01*
X21353610Y-14976476D01*
X21334563Y-14966952D01*
X21544086Y-14976476D02*
X21525039Y-14966952D01*
X21515515Y-14947905D01*
X21515515Y-14776476D01*
X21705991Y-14976476D02*
X21705991Y-14871714D01*
X21696467Y-14852667D01*
X21677420Y-14843143D01*
X21639324Y-14843143D01*
X21620277Y-14852667D01*
X21705991Y-14966952D02*
X21686943Y-14976476D01*
X21639324Y-14976476D01*
X21620277Y-14966952D01*
X21610753Y-14947905D01*
X21610753Y-14928857D01*
X21620277Y-14909809D01*
X21639324Y-14900286D01*
X21686943Y-14900286D01*
X21705991Y-14890762D01*
X21772658Y-14843143D02*
X21848848Y-14843143D01*
X21801229Y-14776476D02*
X21801229Y-14947905D01*
X21810753Y-14966952D01*
X21829801Y-14976476D01*
X21848848Y-14976476D01*
X21991705Y-14966952D02*
X21972658Y-14976476D01*
X21934563Y-14976476D01*
X21915515Y-14966952D01*
X21905991Y-14947905D01*
X21905991Y-14871714D01*
X21915515Y-14852667D01*
X21934563Y-14843143D01*
X21972658Y-14843143D01*
X21991705Y-14852667D01*
X22001229Y-14871714D01*
X22001229Y-14890762D01*
X21905991Y-14909809D01*
X22172658Y-14976476D02*
X22172658Y-14776476D01*
X22172658Y-14966952D02*
X22153610Y-14976476D01*
X22115515Y-14976476D01*
X22096467Y-14966952D01*
X22086943Y-14957428D01*
X22077420Y-14938381D01*
X22077420Y-14881238D01*
X22086943Y-14862190D01*
X22096467Y-14852667D01*
X22115515Y-14843143D01*
X22153610Y-14843143D01*
X22172658Y-14852667D01*
X22248848Y-15052667D02*
X22258372Y-15043143D01*
X22277420Y-15014571D01*
X22286943Y-14995524D01*
X22296467Y-14966952D01*
X22305991Y-14919333D01*
X22305991Y-14881238D01*
X22296467Y-14833619D01*
X22286943Y-14805048D01*
X22277420Y-14786000D01*
X22258372Y-14757428D01*
X22248848Y-14747905D01*
X15295991Y-15106000D02*
X15495991Y-15306000D01*
X15495991Y-15106000D02*
X15295991Y-15306000D01*
X15395991Y-15106000D02*
X15395991Y-15306000D01*
X15295991Y-15206000D02*
X15495991Y-15206000D01*
X15744086Y-15115524D02*
X15753610Y-15106000D01*
X15772658Y-15096476D01*
X15820277Y-15096476D01*
X15839324Y-15106000D01*
X15848848Y-15115524D01*
X15858372Y-15134571D01*
X15858372Y-15153619D01*
X15848848Y-15182190D01*
X15734562Y-15296476D01*
X15858372Y-15296476D01*
X15944086Y-15277428D02*
X15953610Y-15286952D01*
X15944086Y-15296476D01*
X15934562Y-15286952D01*
X15944086Y-15277428D01*
X15944086Y-15296476D01*
X16029801Y-15115524D02*
X16039324Y-15106000D01*
X16058372Y-15096476D01*
X16105991Y-15096476D01*
X16125039Y-15106000D01*
X16134562Y-15115524D01*
X16144086Y-15134571D01*
X16144086Y-15153619D01*
X16134562Y-15182190D01*
X16020277Y-15296476D01*
X16144086Y-15296476D01*
X16267896Y-15096476D02*
X16286943Y-15096476D01*
X16305991Y-15106000D01*
X16315515Y-15115524D01*
X16325039Y-15134571D01*
X16334562Y-15172667D01*
X16334562Y-15220286D01*
X16325039Y-15258381D01*
X16315515Y-15277428D01*
X16305991Y-15286952D01*
X16286943Y-15296476D01*
X16267896Y-15296476D01*
X16248848Y-15286952D01*
X16239324Y-15277428D01*
X16229801Y-15258381D01*
X16220277Y-15220286D01*
X16220277Y-15172667D01*
X16229801Y-15134571D01*
X16239324Y-15115524D01*
X16248848Y-15106000D01*
X16267896Y-15096476D01*
X16458372Y-15096476D02*
X16477420Y-15096476D01*
X16496467Y-15106000D01*
X16505991Y-15115524D01*
X16515515Y-15134571D01*
X16525039Y-15172667D01*
X16525039Y-15220286D01*
X16515515Y-15258381D01*
X16505991Y-15277428D01*
X16496467Y-15286952D01*
X16477420Y-15296476D01*
X16458372Y-15296476D01*
X16439324Y-15286952D01*
X16429801Y-15277428D01*
X16420277Y-15258381D01*
X16410753Y-15220286D01*
X16410753Y-15172667D01*
X16420277Y-15134571D01*
X16429801Y-15115524D01*
X16439324Y-15106000D01*
X16458372Y-15096476D01*
X16610753Y-15296476D02*
X16610753Y-15163143D01*
X16610753Y-15182190D02*
X16620277Y-15172667D01*
X16639324Y-15163143D01*
X16667896Y-15163143D01*
X16686943Y-15172667D01*
X16696467Y-15191714D01*
X16696467Y-15296476D01*
X16696467Y-15191714D02*
X16705991Y-15172667D01*
X16725039Y-15163143D01*
X16753610Y-15163143D01*
X16772658Y-15172667D01*
X16782182Y-15191714D01*
X16782182Y-15296476D01*
X16877420Y-15296476D02*
X16877420Y-15163143D01*
X16877420Y-15182190D02*
X16886943Y-15172667D01*
X16905991Y-15163143D01*
X16934563Y-15163143D01*
X16953610Y-15172667D01*
X16963134Y-15191714D01*
X16963134Y-15296476D01*
X16963134Y-15191714D02*
X16972658Y-15172667D01*
X16991705Y-15163143D01*
X17020277Y-15163143D01*
X17039324Y-15172667D01*
X17048848Y-15191714D01*
X17048848Y-15296476D01*
X17439324Y-15086952D02*
X17267896Y-15344095D01*
X17696467Y-15096476D02*
X17715515Y-15096476D01*
X17734563Y-15106000D01*
X17744086Y-15115524D01*
X17753610Y-15134571D01*
X17763134Y-15172667D01*
X17763134Y-15220286D01*
X17753610Y-15258381D01*
X17744086Y-15277428D01*
X17734563Y-15286952D01*
X17715515Y-15296476D01*
X17696467Y-15296476D01*
X17677420Y-15286952D01*
X17667896Y-15277428D01*
X17658372Y-15258381D01*
X17648848Y-15220286D01*
X17648848Y-15172667D01*
X17658372Y-15134571D01*
X17667896Y-15115524D01*
X17677420Y-15106000D01*
X17696467Y-15096476D01*
X17848848Y-15277428D02*
X17858372Y-15286952D01*
X17848848Y-15296476D01*
X17839324Y-15286952D01*
X17848848Y-15277428D01*
X17848848Y-15296476D01*
X17982182Y-15096476D02*
X18001229Y-15096476D01*
X18020277Y-15106000D01*
X18029801Y-15115524D01*
X18039324Y-15134571D01*
X18048848Y-15172667D01*
X18048848Y-15220286D01*
X18039324Y-15258381D01*
X18029801Y-15277428D01*
X18020277Y-15286952D01*
X18001229Y-15296476D01*
X17982182Y-15296476D01*
X17963134Y-15286952D01*
X17953610Y-15277428D01*
X17944086Y-15258381D01*
X17934563Y-15220286D01*
X17934563Y-15172667D01*
X17944086Y-15134571D01*
X17953610Y-15115524D01*
X17963134Y-15106000D01*
X17982182Y-15096476D01*
X18163134Y-15182190D02*
X18144086Y-15172667D01*
X18134563Y-15163143D01*
X18125039Y-15144095D01*
X18125039Y-15134571D01*
X18134563Y-15115524D01*
X18144086Y-15106000D01*
X18163134Y-15096476D01*
X18201229Y-15096476D01*
X18220277Y-15106000D01*
X18229801Y-15115524D01*
X18239324Y-15134571D01*
X18239324Y-15144095D01*
X18229801Y-15163143D01*
X18220277Y-15172667D01*
X18201229Y-15182190D01*
X18163134Y-15182190D01*
X18144086Y-15191714D01*
X18134563Y-15201238D01*
X18125039Y-15220286D01*
X18125039Y-15258381D01*
X18134563Y-15277428D01*
X18144086Y-15286952D01*
X18163134Y-15296476D01*
X18201229Y-15296476D01*
X18220277Y-15286952D01*
X18229801Y-15277428D01*
X18239324Y-15258381D01*
X18239324Y-15220286D01*
X18229801Y-15201238D01*
X18220277Y-15191714D01*
X18201229Y-15182190D01*
X18410753Y-15096476D02*
X18372658Y-15096476D01*
X18353610Y-15106000D01*
X18344086Y-15115524D01*
X18325039Y-15144095D01*
X18315515Y-15182190D01*
X18315515Y-15258381D01*
X18325039Y-15277428D01*
X18334563Y-15286952D01*
X18353610Y-15296476D01*
X18391705Y-15296476D01*
X18410753Y-15286952D01*
X18420277Y-15277428D01*
X18429801Y-15258381D01*
X18429801Y-15210762D01*
X18420277Y-15191714D01*
X18410753Y-15182190D01*
X18391705Y-15172667D01*
X18353610Y-15172667D01*
X18334563Y-15182190D01*
X18325039Y-15191714D01*
X18315515Y-15210762D01*
X18601229Y-15096476D02*
X18563134Y-15096476D01*
X18544086Y-15106000D01*
X18534563Y-15115524D01*
X18515515Y-15144095D01*
X18505991Y-15182190D01*
X18505991Y-15258381D01*
X18515515Y-15277428D01*
X18525039Y-15286952D01*
X18544086Y-15296476D01*
X18582182Y-15296476D01*
X18601229Y-15286952D01*
X18610753Y-15277428D01*
X18620277Y-15258381D01*
X18620277Y-15210762D01*
X18610753Y-15191714D01*
X18601229Y-15182190D01*
X18582182Y-15172667D01*
X18544086Y-15172667D01*
X18525039Y-15182190D01*
X18515515Y-15191714D01*
X18505991Y-15210762D01*
X18696467Y-15096476D02*
X18696467Y-15134571D01*
X18772658Y-15096476D02*
X18772658Y-15134571D01*
X19067896Y-15372667D02*
X19058372Y-15363143D01*
X19039324Y-15334571D01*
X19029801Y-15315524D01*
X19020277Y-15286952D01*
X19010753Y-15239333D01*
X19010753Y-15201238D01*
X19020277Y-15153619D01*
X19029801Y-15125048D01*
X19039324Y-15106000D01*
X19058372Y-15077428D01*
X19067896Y-15067905D01*
X19248848Y-15296476D02*
X19134563Y-15296476D01*
X19191705Y-15296476D02*
X19191705Y-15096476D01*
X19172658Y-15125048D01*
X19153610Y-15144095D01*
X19134563Y-15153619D01*
X19420277Y-15096476D02*
X19382182Y-15096476D01*
X19363134Y-15106000D01*
X19353610Y-15115524D01*
X19334563Y-15144095D01*
X19325039Y-15182190D01*
X19325039Y-15258381D01*
X19334563Y-15277428D01*
X19344086Y-15286952D01*
X19363134Y-15296476D01*
X19401229Y-15296476D01*
X19420277Y-15286952D01*
X19429801Y-15277428D01*
X19439324Y-15258381D01*
X19439324Y-15210762D01*
X19429801Y-15191714D01*
X19420277Y-15182190D01*
X19401229Y-15172667D01*
X19363134Y-15172667D01*
X19344086Y-15182190D01*
X19334563Y-15191714D01*
X19325039Y-15210762D01*
X19677420Y-15296476D02*
X19677420Y-15096476D01*
X19763134Y-15296476D02*
X19763134Y-15191714D01*
X19753610Y-15172667D01*
X19734563Y-15163143D01*
X19705991Y-15163143D01*
X19686943Y-15172667D01*
X19677420Y-15182190D01*
X19886943Y-15296476D02*
X19867896Y-15286952D01*
X19858372Y-15277428D01*
X19848848Y-15258381D01*
X19848848Y-15201238D01*
X19858372Y-15182190D01*
X19867896Y-15172667D01*
X19886943Y-15163143D01*
X19915515Y-15163143D01*
X19934563Y-15172667D01*
X19944086Y-15182190D01*
X19953610Y-15201238D01*
X19953610Y-15258381D01*
X19944086Y-15277428D01*
X19934563Y-15286952D01*
X19915515Y-15296476D01*
X19886943Y-15296476D01*
X20067896Y-15296476D02*
X20048848Y-15286952D01*
X20039324Y-15267905D01*
X20039324Y-15096476D01*
X20220277Y-15286952D02*
X20201229Y-15296476D01*
X20163134Y-15296476D01*
X20144086Y-15286952D01*
X20134563Y-15267905D01*
X20134563Y-15191714D01*
X20144086Y-15172667D01*
X20163134Y-15163143D01*
X20201229Y-15163143D01*
X20220277Y-15172667D01*
X20229801Y-15191714D01*
X20229801Y-15210762D01*
X20134563Y-15229809D01*
X20305991Y-15286952D02*
X20325039Y-15296476D01*
X20363134Y-15296476D01*
X20382182Y-15286952D01*
X20391705Y-15267905D01*
X20391705Y-15258381D01*
X20382182Y-15239333D01*
X20363134Y-15229809D01*
X20334563Y-15229809D01*
X20315515Y-15220286D01*
X20305991Y-15201238D01*
X20305991Y-15191714D01*
X20315515Y-15172667D01*
X20334563Y-15163143D01*
X20363134Y-15163143D01*
X20382182Y-15172667D01*
X20458372Y-15372667D02*
X20467896Y-15363143D01*
X20486943Y-15334571D01*
X20496467Y-15315524D01*
X20505991Y-15286952D01*
X20515515Y-15239333D01*
X20515515Y-15201238D01*
X20505991Y-15153619D01*
X20496467Y-15125048D01*
X20486943Y-15106000D01*
X20467896Y-15077428D01*
X20458372Y-15067905D01*
X20820277Y-15372667D02*
X20810753Y-15363143D01*
X20791705Y-15334571D01*
X20782182Y-15315524D01*
X20772658Y-15286952D01*
X20763134Y-15239333D01*
X20763134Y-15201238D01*
X20772658Y-15153619D01*
X20782182Y-15125048D01*
X20791705Y-15106000D01*
X20810753Y-15077428D01*
X20820277Y-15067905D01*
X20896467Y-15163143D02*
X20896467Y-15296476D01*
X20896467Y-15182190D02*
X20905991Y-15172667D01*
X20925039Y-15163143D01*
X20953610Y-15163143D01*
X20972658Y-15172667D01*
X20982182Y-15191714D01*
X20982182Y-15296476D01*
X21105991Y-15296476D02*
X21086943Y-15286952D01*
X21077420Y-15277428D01*
X21067896Y-15258381D01*
X21067896Y-15201238D01*
X21077420Y-15182190D01*
X21086943Y-15172667D01*
X21105991Y-15163143D01*
X21134563Y-15163143D01*
X21153610Y-15172667D01*
X21163134Y-15182190D01*
X21172658Y-15201238D01*
X21172658Y-15258381D01*
X21163134Y-15277428D01*
X21153610Y-15286952D01*
X21134563Y-15296476D01*
X21105991Y-15296476D01*
X21229801Y-15163143D02*
X21305991Y-15163143D01*
X21258372Y-15096476D02*
X21258372Y-15267905D01*
X21267896Y-15286952D01*
X21286943Y-15296476D01*
X21305991Y-15296476D01*
X21525039Y-15163143D02*
X21525039Y-15363143D01*
X21525039Y-15172667D02*
X21544086Y-15163143D01*
X21582182Y-15163143D01*
X21601229Y-15172667D01*
X21610753Y-15182190D01*
X21620277Y-15201238D01*
X21620277Y-15258381D01*
X21610753Y-15277428D01*
X21601229Y-15286952D01*
X21582182Y-15296476D01*
X21544086Y-15296476D01*
X21525039Y-15286952D01*
X21734563Y-15296476D02*
X21715515Y-15286952D01*
X21705991Y-15267905D01*
X21705991Y-15096476D01*
X21896467Y-15296476D02*
X21896467Y-15191714D01*
X21886943Y-15172667D01*
X21867896Y-15163143D01*
X21829801Y-15163143D01*
X21810753Y-15172667D01*
X21896467Y-15286952D02*
X21877420Y-15296476D01*
X21829801Y-15296476D01*
X21810753Y-15286952D01*
X21801229Y-15267905D01*
X21801229Y-15248857D01*
X21810753Y-15229809D01*
X21829801Y-15220286D01*
X21877420Y-15220286D01*
X21896467Y-15210762D01*
X21963134Y-15163143D02*
X22039324Y-15163143D01*
X21991705Y-15096476D02*
X21991705Y-15267905D01*
X22001229Y-15286952D01*
X22020277Y-15296476D01*
X22039324Y-15296476D01*
X22182182Y-15286952D02*
X22163134Y-15296476D01*
X22125039Y-15296476D01*
X22105991Y-15286952D01*
X22096467Y-15267905D01*
X22096467Y-15191714D01*
X22105991Y-15172667D01*
X22125039Y-15163143D01*
X22163134Y-15163143D01*
X22182182Y-15172667D01*
X22191705Y-15191714D01*
X22191705Y-15210762D01*
X22096467Y-15229809D01*
X22363134Y-15296476D02*
X22363134Y-15096476D01*
X22363134Y-15286952D02*
X22344086Y-15296476D01*
X22305991Y-15296476D01*
X22286943Y-15286952D01*
X22277420Y-15277428D01*
X22267896Y-15258381D01*
X22267896Y-15201238D01*
X22277420Y-15182190D01*
X22286943Y-15172667D01*
X22305991Y-15163143D01*
X22344086Y-15163143D01*
X22363134Y-15172667D01*
X22439324Y-15372667D02*
X22448848Y-15363143D01*
X22467896Y-15334571D01*
X22477420Y-15315524D01*
X22486943Y-15286952D01*
X22496467Y-15239333D01*
X22496467Y-15201238D01*
X22486943Y-15153619D01*
X22477420Y-15125048D01*
X22467896Y-15106000D01*
X22448848Y-15077428D01*
X22439324Y-15067905D01*
X15295991Y-15426000D02*
X15495991Y-15626000D01*
X15495991Y-15426000D02*
X15295991Y-15626000D01*
X15466702Y-15596711D02*
X15466702Y-15455289D01*
X15325280Y-15455289D01*
X15325280Y-15596711D01*
X15466702Y-15596711D01*
X15734562Y-15416476D02*
X15858372Y-15416476D01*
X15791705Y-15492667D01*
X15820277Y-15492667D01*
X15839324Y-15502190D01*
X15848848Y-15511714D01*
X15858372Y-15530762D01*
X15858372Y-15578381D01*
X15848848Y-15597428D01*
X15839324Y-15606952D01*
X15820277Y-15616476D01*
X15763134Y-15616476D01*
X15744086Y-15606952D01*
X15734562Y-15597428D01*
X15944086Y-15597428D02*
X15953610Y-15606952D01*
X15944086Y-15616476D01*
X15934562Y-15606952D01*
X15944086Y-15597428D01*
X15944086Y-15616476D01*
X16048848Y-15616476D02*
X16086943Y-15616476D01*
X16105991Y-15606952D01*
X16115515Y-15597428D01*
X16134562Y-15568857D01*
X16144086Y-15530762D01*
X16144086Y-15454571D01*
X16134562Y-15435524D01*
X16125039Y-15426000D01*
X16105991Y-15416476D01*
X16067896Y-15416476D01*
X16048848Y-15426000D01*
X16039324Y-15435524D01*
X16029801Y-15454571D01*
X16029801Y-15502190D01*
X16039324Y-15521238D01*
X16048848Y-15530762D01*
X16067896Y-15540286D01*
X16105991Y-15540286D01*
X16125039Y-15530762D01*
X16134562Y-15521238D01*
X16144086Y-15502190D01*
X16258372Y-15502190D02*
X16239324Y-15492667D01*
X16229801Y-15483143D01*
X16220277Y-15464095D01*
X16220277Y-15454571D01*
X16229801Y-15435524D01*
X16239324Y-15426000D01*
X16258372Y-15416476D01*
X16296467Y-15416476D01*
X16315515Y-15426000D01*
X16325039Y-15435524D01*
X16334562Y-15454571D01*
X16334562Y-15464095D01*
X16325039Y-15483143D01*
X16315515Y-15492667D01*
X16296467Y-15502190D01*
X16258372Y-15502190D01*
X16239324Y-15511714D01*
X16229801Y-15521238D01*
X16220277Y-15540286D01*
X16220277Y-15578381D01*
X16229801Y-15597428D01*
X16239324Y-15606952D01*
X16258372Y-15616476D01*
X16296467Y-15616476D01*
X16315515Y-15606952D01*
X16325039Y-15597428D01*
X16334562Y-15578381D01*
X16334562Y-15540286D01*
X16325039Y-15521238D01*
X16315515Y-15511714D01*
X16296467Y-15502190D01*
X16448848Y-15502190D02*
X16429801Y-15492667D01*
X16420277Y-15483143D01*
X16410753Y-15464095D01*
X16410753Y-15454571D01*
X16420277Y-15435524D01*
X16429801Y-15426000D01*
X16448848Y-15416476D01*
X16486943Y-15416476D01*
X16505991Y-15426000D01*
X16515515Y-15435524D01*
X16525039Y-15454571D01*
X16525039Y-15464095D01*
X16515515Y-15483143D01*
X16505991Y-15492667D01*
X16486943Y-15502190D01*
X16448848Y-15502190D01*
X16429801Y-15511714D01*
X16420277Y-15521238D01*
X16410753Y-15540286D01*
X16410753Y-15578381D01*
X16420277Y-15597428D01*
X16429801Y-15606952D01*
X16448848Y-15616476D01*
X16486943Y-15616476D01*
X16505991Y-15606952D01*
X16515515Y-15597428D01*
X16525039Y-15578381D01*
X16525039Y-15540286D01*
X16515515Y-15521238D01*
X16505991Y-15511714D01*
X16486943Y-15502190D01*
X16610753Y-15616476D02*
X16610753Y-15483143D01*
X16610753Y-15502190D02*
X16620277Y-15492667D01*
X16639324Y-15483143D01*
X16667896Y-15483143D01*
X16686943Y-15492667D01*
X16696467Y-15511714D01*
X16696467Y-15616476D01*
X16696467Y-15511714D02*
X16705991Y-15492667D01*
X16725039Y-15483143D01*
X16753610Y-15483143D01*
X16772658Y-15492667D01*
X16782182Y-15511714D01*
X16782182Y-15616476D01*
X16877420Y-15616476D02*
X16877420Y-15483143D01*
X16877420Y-15502190D02*
X16886943Y-15492667D01*
X16905991Y-15483143D01*
X16934563Y-15483143D01*
X16953610Y-15492667D01*
X16963134Y-15511714D01*
X16963134Y-15616476D01*
X16963134Y-15511714D02*
X16972658Y-15492667D01*
X16991705Y-15483143D01*
X17020277Y-15483143D01*
X17039324Y-15492667D01*
X17048848Y-15511714D01*
X17048848Y-15616476D01*
X17439324Y-15406952D02*
X17267896Y-15664095D01*
X17696467Y-15416476D02*
X17715515Y-15416476D01*
X17734563Y-15426000D01*
X17744086Y-15435524D01*
X17753610Y-15454571D01*
X17763134Y-15492667D01*
X17763134Y-15540286D01*
X17753610Y-15578381D01*
X17744086Y-15597428D01*
X17734563Y-15606952D01*
X17715515Y-15616476D01*
X17696467Y-15616476D01*
X17677420Y-15606952D01*
X17667896Y-15597428D01*
X17658372Y-15578381D01*
X17648848Y-15540286D01*
X17648848Y-15492667D01*
X17658372Y-15454571D01*
X17667896Y-15435524D01*
X17677420Y-15426000D01*
X17696467Y-15416476D01*
X17848848Y-15597428D02*
X17858372Y-15606952D01*
X17848848Y-15616476D01*
X17839324Y-15606952D01*
X17848848Y-15597428D01*
X17848848Y-15616476D01*
X18048848Y-15616476D02*
X17934563Y-15616476D01*
X17991705Y-15616476D02*
X17991705Y-15416476D01*
X17972658Y-15445048D01*
X17953610Y-15464095D01*
X17934563Y-15473619D01*
X18229801Y-15416476D02*
X18134563Y-15416476D01*
X18125039Y-15511714D01*
X18134563Y-15502190D01*
X18153610Y-15492667D01*
X18201229Y-15492667D01*
X18220277Y-15502190D01*
X18229801Y-15511714D01*
X18239324Y-15530762D01*
X18239324Y-15578381D01*
X18229801Y-15597428D01*
X18220277Y-15606952D01*
X18201229Y-15616476D01*
X18153610Y-15616476D01*
X18134563Y-15606952D01*
X18125039Y-15597428D01*
X18305991Y-15416476D02*
X18439324Y-15416476D01*
X18353610Y-15616476D01*
X18553610Y-15416476D02*
X18572658Y-15416476D01*
X18591705Y-15426000D01*
X18601229Y-15435524D01*
X18610753Y-15454571D01*
X18620277Y-15492667D01*
X18620277Y-15540286D01*
X18610753Y-15578381D01*
X18601229Y-15597428D01*
X18591705Y-15606952D01*
X18572658Y-15616476D01*
X18553610Y-15616476D01*
X18534563Y-15606952D01*
X18525039Y-15597428D01*
X18515515Y-15578381D01*
X18505991Y-15540286D01*
X18505991Y-15492667D01*
X18515515Y-15454571D01*
X18525039Y-15435524D01*
X18534563Y-15426000D01*
X18553610Y-15416476D01*
X18696467Y-15416476D02*
X18696467Y-15454571D01*
X18772658Y-15416476D02*
X18772658Y-15454571D01*
X19067896Y-15692667D02*
X19058372Y-15683143D01*
X19039324Y-15654571D01*
X19029801Y-15635524D01*
X19020277Y-15606952D01*
X19010753Y-15559333D01*
X19010753Y-15521238D01*
X19020277Y-15473619D01*
X19029801Y-15445048D01*
X19039324Y-15426000D01*
X19058372Y-15397428D01*
X19067896Y-15387905D01*
X19134563Y-15435524D02*
X19144086Y-15426000D01*
X19163134Y-15416476D01*
X19210753Y-15416476D01*
X19229801Y-15426000D01*
X19239324Y-15435524D01*
X19248848Y-15454571D01*
X19248848Y-15473619D01*
X19239324Y-15502190D01*
X19125039Y-15616476D01*
X19248848Y-15616476D01*
X19372658Y-15416476D02*
X19391705Y-15416476D01*
X19410753Y-15426000D01*
X19420277Y-15435524D01*
X19429801Y-15454571D01*
X19439324Y-15492667D01*
X19439324Y-15540286D01*
X19429801Y-15578381D01*
X19420277Y-15597428D01*
X19410753Y-15606952D01*
X19391705Y-15616476D01*
X19372658Y-15616476D01*
X19353610Y-15606952D01*
X19344086Y-15597428D01*
X19334563Y-15578381D01*
X19325039Y-15540286D01*
X19325039Y-15492667D01*
X19334563Y-15454571D01*
X19344086Y-15435524D01*
X19353610Y-15426000D01*
X19372658Y-15416476D01*
X19677420Y-15616476D02*
X19677420Y-15416476D01*
X19763134Y-15616476D02*
X19763134Y-15511714D01*
X19753610Y-15492667D01*
X19734563Y-15483143D01*
X19705991Y-15483143D01*
X19686943Y-15492667D01*
X19677420Y-15502190D01*
X19886943Y-15616476D02*
X19867896Y-15606952D01*
X19858372Y-15597428D01*
X19848848Y-15578381D01*
X19848848Y-15521238D01*
X19858372Y-15502190D01*
X19867896Y-15492667D01*
X19886943Y-15483143D01*
X19915515Y-15483143D01*
X19934563Y-15492667D01*
X19944086Y-15502190D01*
X19953610Y-15521238D01*
X19953610Y-15578381D01*
X19944086Y-15597428D01*
X19934563Y-15606952D01*
X19915515Y-15616476D01*
X19886943Y-15616476D01*
X20067896Y-15616476D02*
X20048848Y-15606952D01*
X20039324Y-15587905D01*
X20039324Y-15416476D01*
X20220277Y-15606952D02*
X20201229Y-15616476D01*
X20163134Y-15616476D01*
X20144086Y-15606952D01*
X20134563Y-15587905D01*
X20134563Y-15511714D01*
X20144086Y-15492667D01*
X20163134Y-15483143D01*
X20201229Y-15483143D01*
X20220277Y-15492667D01*
X20229801Y-15511714D01*
X20229801Y-15530762D01*
X20134563Y-15549809D01*
X20305991Y-15606952D02*
X20325039Y-15616476D01*
X20363134Y-15616476D01*
X20382182Y-15606952D01*
X20391705Y-15587905D01*
X20391705Y-15578381D01*
X20382182Y-15559333D01*
X20363134Y-15549809D01*
X20334563Y-15549809D01*
X20315515Y-15540286D01*
X20305991Y-15521238D01*
X20305991Y-15511714D01*
X20315515Y-15492667D01*
X20334563Y-15483143D01*
X20363134Y-15483143D01*
X20382182Y-15492667D01*
X20458372Y-15692667D02*
X20467896Y-15683143D01*
X20486943Y-15654571D01*
X20496467Y-15635524D01*
X20505991Y-15606952D01*
X20515515Y-15559333D01*
X20515515Y-15521238D01*
X20505991Y-15473619D01*
X20496467Y-15445048D01*
X20486943Y-15426000D01*
X20467896Y-15397428D01*
X20458372Y-15387905D01*
X20820277Y-15692667D02*
X20810753Y-15683143D01*
X20791705Y-15654571D01*
X20782182Y-15635524D01*
X20772658Y-15606952D01*
X20763134Y-15559333D01*
X20763134Y-15521238D01*
X20772658Y-15473619D01*
X20782182Y-15445048D01*
X20791705Y-15426000D01*
X20810753Y-15397428D01*
X20820277Y-15387905D01*
X20896467Y-15483143D02*
X20896467Y-15616476D01*
X20896467Y-15502190D02*
X20905991Y-15492667D01*
X20925039Y-15483143D01*
X20953610Y-15483143D01*
X20972658Y-15492667D01*
X20982182Y-15511714D01*
X20982182Y-15616476D01*
X21105991Y-15616476D02*
X21086943Y-15606952D01*
X21077420Y-15597428D01*
X21067896Y-15578381D01*
X21067896Y-15521238D01*
X21077420Y-15502190D01*
X21086943Y-15492667D01*
X21105991Y-15483143D01*
X21134563Y-15483143D01*
X21153610Y-15492667D01*
X21163134Y-15502190D01*
X21172658Y-15521238D01*
X21172658Y-15578381D01*
X21163134Y-15597428D01*
X21153610Y-15606952D01*
X21134563Y-15616476D01*
X21105991Y-15616476D01*
X21229801Y-15483143D02*
X21305991Y-15483143D01*
X21258372Y-15416476D02*
X21258372Y-15587905D01*
X21267896Y-15606952D01*
X21286943Y-15616476D01*
X21305991Y-15616476D01*
X21525039Y-15483143D02*
X21525039Y-15683143D01*
X21525039Y-15492667D02*
X21544086Y-15483143D01*
X21582182Y-15483143D01*
X21601229Y-15492667D01*
X21610753Y-15502190D01*
X21620277Y-15521238D01*
X21620277Y-15578381D01*
X21610753Y-15597428D01*
X21601229Y-15606952D01*
X21582182Y-15616476D01*
X21544086Y-15616476D01*
X21525039Y-15606952D01*
X21734563Y-15616476D02*
X21715515Y-15606952D01*
X21705991Y-15587905D01*
X21705991Y-15416476D01*
X21896467Y-15616476D02*
X21896467Y-15511714D01*
X21886943Y-15492667D01*
X21867896Y-15483143D01*
X21829801Y-15483143D01*
X21810753Y-15492667D01*
X21896467Y-15606952D02*
X21877420Y-15616476D01*
X21829801Y-15616476D01*
X21810753Y-15606952D01*
X21801229Y-15587905D01*
X21801229Y-15568857D01*
X21810753Y-15549809D01*
X21829801Y-15540286D01*
X21877420Y-15540286D01*
X21896467Y-15530762D01*
X21963134Y-15483143D02*
X22039324Y-15483143D01*
X21991705Y-15416476D02*
X21991705Y-15587905D01*
X22001229Y-15606952D01*
X22020277Y-15616476D01*
X22039324Y-15616476D01*
X22182182Y-15606952D02*
X22163134Y-15616476D01*
X22125039Y-15616476D01*
X22105991Y-15606952D01*
X22096467Y-15587905D01*
X22096467Y-15511714D01*
X22105991Y-15492667D01*
X22125039Y-15483143D01*
X22163134Y-15483143D01*
X22182182Y-15492667D01*
X22191705Y-15511714D01*
X22191705Y-15530762D01*
X22096467Y-15549809D01*
X22363134Y-15616476D02*
X22363134Y-15416476D01*
X22363134Y-15606952D02*
X22344086Y-15616476D01*
X22305991Y-15616476D01*
X22286943Y-15606952D01*
X22277420Y-15597428D01*
X22267896Y-15578381D01*
X22267896Y-15521238D01*
X22277420Y-15502190D01*
X22286943Y-15492667D01*
X22305991Y-15483143D01*
X22344086Y-15483143D01*
X22363134Y-15492667D01*
X22439324Y-15692667D02*
X22448848Y-15683143D01*
X22467896Y-15654571D01*
X22477420Y-15635524D01*
X22486943Y-15606952D01*
X22496467Y-15559333D01*
X22496467Y-15521238D01*
X22486943Y-15473619D01*
X22477420Y-15445048D01*
X22467896Y-15426000D01*
X22448848Y-15397428D01*
X22439324Y-15387905D01*
M02*
