M48
; DRILL file {KiCad (6.0.7)} date Fri Jan  6 20:11:23 2023
; FORMAT={-:-/ absolute / metric / decimal}
; #@! TF.CreationDate,2023-01-06T20:11:23-06:00
; #@! TF.GenerationSoftware,Kicad,Pcbnew,(6.0.7)
; #@! TF.FileFunction,NonPlated,1,2,NPTH
FMAT,2
METRIC
; #@! TA.AperFunction,NonPlated,NPTH,ComponentDrill
T1C0.500
; #@! TA.AperFunction,NonPlated,NPTH,ComponentDrill
T2C0.650
; #@! TA.AperFunction,NonPlated,NPTH,ComponentDrill
T3C0.750
; #@! TA.AperFunction,NonPlated,NPTH,ComponentDrill
T4C1.500
; #@! TA.AperFunction,NonPlated,NPTH,ComponentDrill
T5C1.750
; #@! TA.AperFunction,NonPlated,NPTH,ComponentDrill
T6C2.100
; #@! TA.AperFunction,NonPlated,NPTH,ComponentDrill
T7C2.200
; #@! TA.AperFunction,NonPlated,NPTH,ComponentDrill
T8C3.988
%
G90
G05
T1
X198.55Y-114.22
X198.55Y-114.96
X198.55Y-115.7
X198.55Y-116.44
X198.55Y-117.18
X198.55Y-117.92
X202.56Y-114.22
X202.56Y-114.96
X202.56Y-115.7
X202.56Y-116.44
X202.56Y-117.18
X202.56Y-117.92
X306.53Y-83.63
X306.53Y-84.37
X306.53Y-85.11
X306.53Y-85.85
X306.53Y-86.59
X306.53Y-87.33
X324.09Y-83.63
X324.09Y-84.37
X324.09Y-85.11
X324.09Y-85.85
X324.09Y-86.59
X324.09Y-87.33
T2
X202.178Y-33.729
T3
X209.34Y-31.725
X209.34Y-32.995
X209.34Y-34.265
X209.34Y-35.535
X209.34Y-76.875
X209.34Y-78.145
X209.34Y-79.415
X209.34Y-80.685
X249.98Y-110.425
X249.98Y-111.695
X249.98Y-112.965
X249.98Y-114.235
X254.635Y-101.44
X255.48Y-28.975
X255.48Y-30.245
X255.48Y-31.515
X255.48Y-32.785
X255.48Y-43.995
X255.48Y-45.265
X255.48Y-46.535
X255.48Y-47.805
X255.905Y-101.44
X257.175Y-101.44
X258.445Y-101.44
X323.98Y-61.965
X323.98Y-63.235
X323.98Y-64.505
X323.98Y-65.775
T4
X174.281Y-65.694
X174.581Y-68.724
X179.431Y-68.724
X179.731Y-65.694
T5
X193.498Y-74.327
X203.659Y-74.327
X211.59Y-111.798
X211.59Y-121.958
X218.606Y-30.702
X218.606Y-40.862
X227.626Y-85.575
X227.626Y-95.735
X230.601Y-57.22
X230.601Y-67.38
X239.2Y-111.798
X239.2Y-121.958
X246.215Y-30.702
X246.215Y-40.862
X255.236Y-85.575
X255.236Y-95.735
X258.211Y-57.22
X258.211Y-67.38
X259.24Y-105.631
X259.24Y-115.791
X266.254Y-36.949
X266.254Y-47.109
X275.009Y-82.943
X275.009Y-93.103
X282.024Y-59.636
X282.024Y-69.796
X297.439Y-36.949
X297.439Y-47.109
X297.439Y-82.293
X297.439Y-92.453
X313.209Y-59.636
X313.209Y-69.796
X323.007Y-31.364
X323.007Y-41.524
X330.273Y-111.572
X330.273Y-121.732
X339.31Y-56.644
X339.31Y-66.804
X342.036Y-85.0
X342.036Y-95.16
T6
X171.306Y-66.194
X171.306Y-113.194
X182.706Y-66.194
X182.706Y-113.194
T7
X159.24Y-99.45
X159.24Y-124.61
X159.24Y-29.197
X194.683Y-124.61
X203.88Y-59.33
X214.249Y-103.571
X232.669Y-35.441
X244.479Y-103.461
X258.509Y-76.851
X272.807Y-99.977
X272.807Y-116.397
X279.552Y-52.61
X300.732Y-69.38
X326.45Y-51.706
X326.72Y-106.746
X339.92Y-75.596
T8
X198.578Y-74.327
X211.59Y-116.878
X218.606Y-35.782
X227.626Y-90.655
X230.601Y-62.3
X239.2Y-116.878
X246.215Y-35.782
X255.236Y-90.655
X258.211Y-62.3
X259.24Y-110.711
X266.254Y-42.029
X275.009Y-88.023
X282.024Y-64.716
X297.439Y-42.029
X297.439Y-87.373
X313.209Y-64.716
X323.007Y-36.444
X330.273Y-116.652
X339.31Y-61.724
X342.036Y-90.08
T2
G00X195.129Y-33.729
M15
G01X194.828Y-33.729
M16
G05
T0
M30
