%TF.GenerationSoftware,KiCad,Pcbnew,(6.0.7)*%
%TF.CreationDate,2023-01-06T20:11:21-06:00*%
%TF.ProjectId,OpenRectangle,4f70656e-5265-4637-9461-6e676c652e6b,rev?*%
%TF.SameCoordinates,Original*%
%TF.FileFunction,Soldermask,Top*%
%TF.FilePolarity,Negative*%
%FSLAX46Y46*%
G04 Gerber Fmt 4.6, Leading zero omitted, Abs format (unit mm)*
G04 Created by KiCad (PCBNEW (6.0.7)) date 2023-01-06 20:11:21*
%MOMM*%
%LPD*%
G01*
G04 APERTURE LIST*
G04 Aperture macros list*
%AMRoundRect*
0 Rectangle with rounded corners*
0 $1 Rounding radius*
0 $2 $3 $4 $5 $6 $7 $8 $9 X,Y pos of 4 corners*
0 Add a 4 corners polygon primitive as box body*
4,1,4,$2,$3,$4,$5,$6,$7,$8,$9,$2,$3,0*
0 Add four circle primitives for the rounded corners*
1,1,$1+$1,$2,$3*
1,1,$1+$1,$4,$5*
1,1,$1+$1,$6,$7*
1,1,$1+$1,$8,$9*
0 Add four rect primitives between the rounded corners*
20,1,$1+$1,$2,$3,$4,$5,0*
20,1,$1+$1,$4,$5,$6,$7,0*
20,1,$1+$1,$6,$7,$8,$9,0*
20,1,$1+$1,$8,$9,$2,$3,0*%
G04 Aperture macros list end*
%ADD10C,2.200000*%
%ADD11C,0.750000*%
%ADD12R,1.700000X1.700000*%
%ADD13O,1.700000X1.700000*%
%ADD14C,0.500000*%
%ADD15C,2.100000*%
%ADD16C,1.500000*%
%ADD17O,3.327000X1.727000*%
%ADD18O,1.727000X3.327000*%
%ADD19RoundRect,0.063500X-0.400000X-0.400000X0.400000X-0.400000X0.400000X0.400000X-0.400000X0.400000X0*%
%ADD20RoundRect,0.243750X-0.243750X-0.456250X0.243750X-0.456250X0.243750X0.456250X-0.243750X0.456250X0*%
%ADD21R,2.200000X2.200000*%
%ADD22O,2.200000X2.200000*%
%ADD23C,0.650000*%
%ADD24O,0.950000X0.650000*%
%ADD25R,0.300000X0.700000*%
%ADD26O,0.800000X1.400000*%
%ADD27C,1.750000*%
%ADD28C,3.987800*%
%ADD29C,3.300000*%
G04 APERTURE END LIST*
D10*
%TO.C,H16*%
X203879700Y-59330000D03*
%TD*%
%TO.C,H7*%
X279552268Y-52610461D03*
%TD*%
%TO.C,H15*%
X159240100Y-29196900D03*
%TD*%
%TO.C,H2*%
X339920000Y-75595786D03*
%TD*%
%TO.C,H1*%
X326450000Y-51705786D03*
%TD*%
%TO.C,H13*%
X159240000Y-124609900D03*
%TD*%
%TO.C,H3*%
X326720000Y-106745786D03*
%TD*%
D11*
%TO.C,REF\u002A\u002A*%
X255480000Y-32785000D03*
X255480000Y-30245000D03*
X255480000Y-31515000D03*
X255480000Y-28975000D03*
%TD*%
D12*
%TO.C,J9*%
X161610000Y-70670000D03*
D13*
X161610000Y-73210000D03*
X161610000Y-75750000D03*
X161610000Y-78290000D03*
X161610000Y-80830000D03*
%TD*%
D14*
%TO.C,REF\u002A\u002A*%
X198550000Y-117180000D03*
X198550000Y-117920000D03*
X198550000Y-114220000D03*
X198550000Y-116440000D03*
X198550000Y-114960000D03*
X198550000Y-115700000D03*
%TD*%
D10*
%TO.C,H8*%
X232668834Y-35441260D03*
%TD*%
%TO.C,H11*%
X214248834Y-103571260D03*
%TD*%
D14*
%TO.C,REF\u002A\u002A*%
X306530000Y-86590000D03*
X306530000Y-87330000D03*
X306530000Y-83630000D03*
X306530000Y-85850000D03*
X306530000Y-84370000D03*
X306530000Y-85110000D03*
%TD*%
%TO.C,REF\u002A\u002A*%
X202560000Y-117180000D03*
X202560000Y-117920000D03*
X202560000Y-114220000D03*
X202560000Y-116440000D03*
X202560000Y-114960000D03*
X202560000Y-115700000D03*
%TD*%
D10*
%TO.C,H10*%
X244478834Y-103461260D03*
%TD*%
D15*
%TO.C,J8*%
X182706250Y-66193750D03*
D16*
X174281250Y-65693750D03*
X179431250Y-68723750D03*
D15*
X182706250Y-113193750D03*
D16*
X174581250Y-68723750D03*
D15*
X171306250Y-66193750D03*
D16*
X179731250Y-65693750D03*
D15*
X171306250Y-113193750D03*
D17*
X186696250Y-75723750D03*
X186696250Y-73183750D03*
X186696250Y-78263750D03*
X186696250Y-83343750D03*
X167316250Y-70643750D03*
X167316250Y-83343750D03*
X167316250Y-96043750D03*
X167316250Y-108743750D03*
D18*
X177006250Y-114393750D03*
D17*
X186696250Y-108743750D03*
X186696250Y-96043750D03*
X186696250Y-70643750D03*
X167316250Y-65563750D03*
X167316250Y-68103750D03*
X167316250Y-73183750D03*
X167316250Y-75723750D03*
X167316250Y-78263750D03*
X167316250Y-80803750D03*
X167316250Y-85883750D03*
X167316250Y-88423750D03*
X167316250Y-90963750D03*
X167316250Y-93503750D03*
X167316250Y-98583750D03*
X167316250Y-101123750D03*
X167316250Y-103663750D03*
X167316250Y-106203750D03*
X167316250Y-111283750D03*
X167316250Y-113823750D03*
X186696250Y-113823750D03*
X186696250Y-111283750D03*
X186696250Y-106203750D03*
X186696250Y-103663750D03*
X186696250Y-101123750D03*
X186696250Y-98583750D03*
X186696250Y-93503750D03*
X186696250Y-88423750D03*
X186696250Y-85883750D03*
X186696250Y-80803750D03*
X186696250Y-90963750D03*
D18*
X174466250Y-114393750D03*
X179546250Y-114393750D03*
D19*
X178006250Y-65393750D03*
X176006250Y-65393750D03*
D17*
X186696250Y-65563750D03*
X186696250Y-68103750D03*
%TD*%
D12*
%TO.C,J1*%
X329710000Y-102845786D03*
D13*
X329710000Y-100305786D03*
X329710000Y-97765786D03*
X329710000Y-95225786D03*
X329710000Y-92685786D03*
%TD*%
D11*
%TO.C,REF\u002A\u002A*%
X249980000Y-110425000D03*
X249980000Y-112965000D03*
X249980000Y-111695000D03*
X249980000Y-114235000D03*
%TD*%
D10*
%TO.C,H9*%
X258508834Y-76851260D03*
%TD*%
%TO.C,H6*%
X300732268Y-69380461D03*
%TD*%
D20*
%TO.C,D2*%
X198293750Y-51593750D03*
X200168750Y-51593750D03*
%TD*%
D12*
%TO.C,J3*%
X270846866Y-104922348D03*
D13*
X270846866Y-107462348D03*
X270846866Y-110002348D03*
%TD*%
D21*
%TO.C,D1*%
X193675000Y-51593750D03*
D22*
X203835000Y-51593750D03*
%TD*%
D11*
%TO.C,REF\u002A\u002A*%
X258445000Y-101440000D03*
X255905000Y-101440000D03*
X257175000Y-101440000D03*
X254635000Y-101440000D03*
%TD*%
%TO.C,REF\u002A\u002A*%
X255480000Y-47805000D03*
X255480000Y-45265000D03*
X255480000Y-46535000D03*
X255480000Y-43995000D03*
%TD*%
D10*
%TO.C,H5*%
X272806866Y-116397348D03*
%TD*%
D12*
%TO.C,J6*%
X180806250Y-53510000D03*
D13*
X178266250Y-53510000D03*
X175726250Y-53510000D03*
X173186250Y-53510000D03*
%TD*%
D10*
%TO.C,H4*%
X272806866Y-99977348D03*
%TD*%
%TO.C,H14*%
X194683100Y-124609900D03*
%TD*%
D14*
%TO.C,REF\u002A\u002A*%
X324090000Y-84370000D03*
X324090000Y-83630000D03*
X324090000Y-87330000D03*
X324090000Y-85110000D03*
X324090000Y-86590000D03*
X324090000Y-85850000D03*
%TD*%
D11*
%TO.C,REF\u002A\u002A*%
X323980000Y-61965000D03*
X323980000Y-64505000D03*
X323980000Y-63235000D03*
X323980000Y-65775000D03*
%TD*%
D12*
%TO.C,J12*%
X192390000Y-110190000D03*
D13*
X192390000Y-107650000D03*
X192390000Y-105110000D03*
X192390000Y-102570000D03*
X192390000Y-100030000D03*
X192390000Y-97490000D03*
X192390000Y-94950000D03*
X192390000Y-92410000D03*
X192390000Y-89870000D03*
%TD*%
D12*
%TO.C,J11*%
X170600000Y-122230000D03*
D13*
X173140000Y-122230000D03*
X175680000Y-122230000D03*
X178220000Y-122230000D03*
X180760000Y-122230000D03*
X183300000Y-122230000D03*
%TD*%
D12*
%TO.C,J5*%
X176212500Y-30162500D03*
D13*
X178752500Y-30162500D03*
X181292500Y-30162500D03*
X183832500Y-30162500D03*
X186372500Y-30162500D03*
X188912500Y-30162500D03*
%TD*%
D12*
%TO.C,J10*%
X161610000Y-86500000D03*
D13*
X161610000Y-89040000D03*
X161610000Y-91580000D03*
%TD*%
D12*
%TO.C,J4*%
X275767268Y-32445461D03*
D13*
X278307268Y-32445461D03*
X280847268Y-32445461D03*
X283387268Y-32445461D03*
X285927268Y-32445461D03*
X288467268Y-32445461D03*
%TD*%
D10*
%TO.C,H12*%
X159240000Y-99450000D03*
%TD*%
D11*
%TO.C,REF\u002A\u002A*%
X209340000Y-31725000D03*
X209340000Y-34265000D03*
X209340000Y-32995000D03*
X209340000Y-35535000D03*
%TD*%
%TO.C,REF\u002A\u002A*%
X209340000Y-76875000D03*
X209340000Y-79415000D03*
X209340000Y-78145000D03*
X209340000Y-80685000D03*
%TD*%
D23*
%TO.C,J7*%
X202178500Y-33728750D03*
D24*
X194978500Y-33728750D03*
D25*
X201328500Y-34388750D03*
X200828500Y-34388750D03*
X200328500Y-34388750D03*
X199828500Y-34388750D03*
X199328500Y-34388750D03*
X198828500Y-34388750D03*
X198328500Y-34388750D03*
X197828500Y-34388750D03*
X197328500Y-34388750D03*
X196828500Y-34388750D03*
X196328500Y-34388750D03*
X195828500Y-34388750D03*
D23*
X195778500Y-33078750D03*
X196178500Y-32378750D03*
X196978500Y-32378750D03*
X197378500Y-33078750D03*
X197778500Y-32378750D03*
X198178500Y-33078750D03*
X198978500Y-33078750D03*
X199378500Y-32378750D03*
X199778500Y-33078750D03*
X200178500Y-32378750D03*
X200978500Y-32378750D03*
X201378500Y-33078750D03*
D26*
X194088500Y-26528750D03*
X203068500Y-26528750D03*
X202708500Y-32478750D03*
X194448500Y-32478750D03*
%TD*%
D12*
%TO.C,J2*%
X217968834Y-73801260D03*
D13*
X217968834Y-71261260D03*
X217968834Y-68721260D03*
X217968834Y-66181260D03*
X217968834Y-63641260D03*
X217968834Y-61101260D03*
X217968834Y-58561260D03*
X217968834Y-56021260D03*
X217968834Y-53481260D03*
%TD*%
D27*
%TO.C,SW2*%
X258210968Y-67379760D03*
D28*
X258210968Y-62299760D03*
D27*
X258210968Y-57219760D03*
D29*
X260750968Y-58489760D03*
X263290968Y-64839760D03*
%TD*%
D28*
%TO.C,SW18*%
X266254402Y-42028961D03*
D27*
X266254402Y-47108961D03*
X266254402Y-36948961D03*
D29*
X268794402Y-38218961D03*
X271334402Y-44568961D03*
%TD*%
D27*
%TO.C,SW10*%
X218605968Y-40861760D03*
D28*
X218605968Y-35781760D03*
D27*
X218605968Y-30701760D03*
D29*
X221145968Y-31971760D03*
X223685968Y-38321760D03*
%TD*%
D27*
%TO.C,SW13*%
X211589968Y-121957760D03*
X211589968Y-111797760D03*
D28*
X211589968Y-116877760D03*
D29*
X214129968Y-113067760D03*
X216669968Y-119417760D03*
%TD*%
D27*
%TO.C,SW14*%
X275009000Y-93102848D03*
D28*
X275009000Y-88022848D03*
D27*
X275009000Y-82942848D03*
D29*
X277549000Y-84212848D03*
X280089000Y-90562848D03*
%TD*%
D27*
%TO.C,SW16*%
X297439402Y-36948961D03*
X297439402Y-47108961D03*
D28*
X297439402Y-42028961D03*
D29*
X299979402Y-38218961D03*
X302519402Y-44568961D03*
%TD*%
D27*
%TO.C,SW11*%
X230600968Y-57219760D03*
X230600968Y-67379760D03*
D28*
X230600968Y-62299760D03*
D29*
X233140968Y-58489760D03*
X235680968Y-64839760D03*
%TD*%
D28*
%TO.C,SW17*%
X313209402Y-64715961D03*
D27*
X313209402Y-69795961D03*
X313209402Y-59635961D03*
D29*
X315749402Y-60905961D03*
X318289402Y-67255961D03*
%TD*%
D27*
%TO.C,SW3*%
X255235968Y-95734760D03*
X255235968Y-85574760D03*
D28*
X255235968Y-90654760D03*
D29*
X257775968Y-86844760D03*
X260315968Y-93194760D03*
%TD*%
D27*
%TO.C,SW19*%
X282024402Y-59635961D03*
X282024402Y-69795961D03*
D28*
X282024402Y-64715961D03*
D29*
X284564402Y-60905961D03*
X287104402Y-67255961D03*
%TD*%
D27*
%TO.C,SW6*%
X323007134Y-31364286D03*
X323007134Y-41524286D03*
D28*
X323007134Y-36444286D03*
D29*
X325547134Y-32634286D03*
X328087134Y-38984286D03*
%TD*%
D27*
%TO.C,SW7*%
X339310134Y-66804286D03*
X339310134Y-56644286D03*
D28*
X339310134Y-61724286D03*
D29*
X341850134Y-57914286D03*
X344390134Y-64264286D03*
%TD*%
D27*
%TO.C,SW15*%
X259240000Y-115790848D03*
X259240000Y-105630848D03*
D28*
X259240000Y-110710848D03*
D29*
X261780000Y-106900848D03*
X264320000Y-113250848D03*
%TD*%
D28*
%TO.C,SW8*%
X342036134Y-90080286D03*
D27*
X342036134Y-95160286D03*
X342036134Y-85000286D03*
D29*
X344576134Y-86270286D03*
X347116134Y-92620286D03*
%TD*%
D27*
%TO.C,SW1*%
X246214968Y-40861760D03*
X246214968Y-30701760D03*
D28*
X246214968Y-35781760D03*
D29*
X248754968Y-31971760D03*
X251294968Y-38321760D03*
%TD*%
D27*
%TO.C,SW4*%
X239199968Y-121957760D03*
D28*
X239199968Y-116877760D03*
D27*
X239199968Y-111797760D03*
D29*
X241739968Y-113067760D03*
X244279968Y-119417760D03*
%TD*%
D27*
%TO.C,SW20*%
X297439402Y-82292961D03*
D28*
X297439402Y-87372961D03*
D27*
X297439402Y-92452961D03*
D29*
X299979402Y-83562961D03*
X302519402Y-89912961D03*
%TD*%
D28*
%TO.C,SW12*%
X227625968Y-90654760D03*
D27*
X227625968Y-85574760D03*
X227625968Y-95734760D03*
D29*
X230165968Y-86844760D03*
X232705968Y-93194760D03*
%TD*%
D27*
%TO.C,SW9*%
X330273134Y-111572286D03*
D28*
X330273134Y-116652286D03*
D27*
X330273134Y-121732286D03*
D29*
X332813134Y-112842286D03*
X335353134Y-119192286D03*
%TD*%
D28*
%TO.C,SW5*%
X198578500Y-74326866D03*
D27*
X203658500Y-74326866D03*
X193498500Y-74326866D03*
D29*
X194768500Y-71786866D03*
X201118500Y-69246866D03*
%TD*%
M02*
