M48
; DRILL file {KiCad (6.0.7)} date Fri Jan  6 20:11:23 2023
; FORMAT={-:-/ absolute / metric / decimal}
; #@! TF.CreationDate,2023-01-06T20:11:23-06:00
; #@! TF.GenerationSoftware,Kicad,Pcbnew,(6.0.7)
; #@! TF.FileFunction,Plated,1,2,PTH
FMAT,2
METRIC
; #@! TA.AperFunction,Plated,PTH,ViaDrill
T1C0.300
; #@! TA.AperFunction,Plated,PTH,ViaDrill
T2C0.400
; #@! TA.AperFunction,Plated,PTH,ComponentDrill
T3C0.400
; #@! TA.AperFunction,Plated,PTH,ComponentDrill
T4C0.500
; #@! TA.AperFunction,Plated,PTH,ComponentDrill
T5C0.600
; #@! TA.AperFunction,Plated,PTH,ComponentDrill
T6C1.000
; #@! TA.AperFunction,Plated,PTH,ComponentDrill
T7C1.100
; #@! TA.AperFunction,Plated,PTH,ComponentDrill
T8C3.000
%
G90
G05
T1
X198.254Y-36.24
T2
X172.12Y-34.42
X187.64Y-32.66
X190.6Y-42.11
T3
X195.778Y-33.079
X196.178Y-32.379
X196.978Y-32.379
X197.379Y-33.079
X197.778Y-32.379
X198.178Y-33.079
X198.978Y-33.079
X199.379Y-32.379
X199.778Y-33.079
X200.178Y-32.379
X200.978Y-32.379
X201.379Y-33.079
T5
X176.006Y-65.394
X178.006Y-65.394
T6
X161.61Y-70.67
X161.61Y-73.21
X161.61Y-75.75
X161.61Y-78.29
X161.61Y-80.83
X161.61Y-86.5
X161.61Y-89.04
X161.61Y-91.58
X170.6Y-122.23
X173.14Y-122.23
X173.186Y-53.51
X175.68Y-122.23
X175.726Y-53.51
X176.213Y-30.162
X178.22Y-122.23
X178.266Y-53.51
X178.752Y-30.162
X180.76Y-122.23
X180.806Y-53.51
X181.292Y-30.162
X183.3Y-122.23
X183.832Y-30.162
X186.373Y-30.162
X188.912Y-30.162
X192.39Y-89.87
X192.39Y-92.41
X192.39Y-94.95
X192.39Y-97.49
X192.39Y-100.03
X192.39Y-102.57
X192.39Y-105.11
X192.39Y-107.65
X192.39Y-110.19
X217.969Y-53.481
X217.969Y-56.021
X217.969Y-58.561
X217.969Y-61.101
X217.969Y-63.641
X217.969Y-66.181
X217.969Y-68.721
X217.969Y-71.261
X217.969Y-73.801
X270.847Y-104.922
X270.847Y-107.462
X270.847Y-110.002
X275.767Y-32.445
X278.307Y-32.445
X280.847Y-32.445
X283.387Y-32.445
X285.927Y-32.445
X288.467Y-32.445
X329.71Y-92.686
X329.71Y-95.226
X329.71Y-97.766
X329.71Y-100.306
X329.71Y-102.846
T7
X168.116Y-65.564
X168.116Y-68.104
X168.116Y-70.644
X168.116Y-73.184
X168.116Y-75.724
X168.116Y-78.264
X168.116Y-80.804
X168.116Y-83.344
X168.116Y-85.884
X168.116Y-88.424
X168.116Y-90.964
X168.116Y-93.504
X168.116Y-96.044
X168.116Y-98.584
X168.116Y-101.124
X168.116Y-103.664
X168.116Y-106.204
X168.116Y-108.744
X168.116Y-111.284
X168.116Y-113.824
X174.466Y-113.594
X177.006Y-113.594
X179.546Y-113.594
X185.896Y-65.564
X185.896Y-68.104
X185.896Y-70.644
X185.896Y-73.184
X185.896Y-75.724
X185.896Y-78.264
X185.896Y-80.804
X185.896Y-83.344
X185.896Y-85.884
X185.896Y-88.424
X185.896Y-90.964
X185.896Y-93.504
X185.896Y-96.044
X185.896Y-98.584
X185.896Y-101.124
X185.896Y-103.664
X185.896Y-106.204
X185.896Y-108.744
X185.896Y-111.284
X185.896Y-113.824
X193.675Y-51.594
X203.835Y-51.594
T8
X194.768Y-71.787
X201.118Y-69.247
X214.13Y-113.068
X216.67Y-119.418
X221.146Y-31.972
X223.686Y-38.322
X230.166Y-86.845
X232.706Y-93.195
X233.141Y-58.49
X235.681Y-64.84
X241.74Y-113.068
X244.28Y-119.418
X248.755Y-31.972
X251.295Y-38.322
X257.776Y-86.845
X260.316Y-93.195
X260.751Y-58.49
X261.78Y-106.901
X263.291Y-64.84
X264.32Y-113.251
X268.794Y-38.219
X271.334Y-44.569
X277.549Y-84.213
X280.089Y-90.563
X284.564Y-60.906
X287.104Y-67.256
X299.979Y-38.219
X299.979Y-83.563
X302.519Y-44.569
X302.519Y-89.913
X315.749Y-60.906
X318.289Y-67.256
X325.547Y-32.634
X328.087Y-38.984
X332.813Y-112.842
X335.353Y-119.192
X341.85Y-57.914
X344.39Y-64.264
X344.576Y-86.27
X347.116Y-92.62
T4
G00X194.088Y-26.829
M15
G01X194.088Y-26.229
M16
G05
G00X194.448Y-32.779
M15
G01X194.448Y-32.179
M16
G05
G00X202.708Y-32.779
M15
G01X202.708Y-32.179
M16
G05
G00X203.069Y-26.829
M15
G01X203.069Y-26.229
M16
G05
T0
M30
